%TF.GenerationSoftware,KiCad,Pcbnew,(6.0.7-1)-1*%
%TF.CreationDate,2023-03-19T13:44:50-04:00*%
%TF.ProjectId,smu_base,736d755f-6261-4736-952e-6b696361645f,rev?*%
%TF.SameCoordinates,Original*%
%TF.FileFunction,Drillmap*%
%TF.FilePolarity,Positive*%
%FSLAX45Y45*%
G04 Gerber Fmt 4.5, Leading zero omitted, Abs format (unit mm)*
G04 Created by KiCad (PCBNEW (6.0.7-1)-1) date 2023-03-19 13:44:50*
%MOMM*%
%LPD*%
G01*
G04 APERTURE LIST*
%ADD10C,0.100000*%
%ADD11C,0.200000*%
%ADD12C,0.065000*%
%ADD13C,0.317500*%
G04 APERTURE END LIST*
D10*
X17272000Y-13462000D02*
X10414000Y-13462000D01*
X10414000Y-13462000D02*
X10414000Y-8128000D01*
X10414000Y-8128000D02*
X17272000Y-8128000D01*
X17272000Y-8128000D02*
X17272000Y-13462000D01*
D11*
D12*
X11016200Y-9330500D02*
X11081200Y-9395500D01*
X11081200Y-9330500D02*
X11016200Y-9395500D01*
X11016200Y-9908500D02*
X11081200Y-9973500D01*
X11081200Y-9908500D02*
X11016200Y-9973500D01*
D13*
X11969750Y-13208000D02*
G75*
G03*
X11969750Y-13208000I-158750J0D01*
G01*
X12096750Y-8382000D02*
G75*
G03*
X12096750Y-8382000I-158750J0D01*
G01*
X17176750Y-9906000D02*
G75*
G03*
X17176750Y-9906000I-158750J0D01*
G01*
X17176750Y-12700000D02*
G75*
G03*
X17176750Y-12700000I-158750J0D01*
G01*
D11*
X10666619Y-13777476D02*
X10666619Y-13577476D01*
X10714238Y-13577476D01*
X10742810Y-13587000D01*
X10761857Y-13606048D01*
X10771381Y-13625095D01*
X10780905Y-13663190D01*
X10780905Y-13691762D01*
X10771381Y-13729857D01*
X10761857Y-13748905D01*
X10742810Y-13767952D01*
X10714238Y-13777476D01*
X10666619Y-13777476D01*
X10866619Y-13777476D02*
X10866619Y-13644143D01*
X10866619Y-13682238D02*
X10876143Y-13663190D01*
X10885667Y-13653667D01*
X10904714Y-13644143D01*
X10923762Y-13644143D01*
X10990429Y-13777476D02*
X10990429Y-13644143D01*
X10990429Y-13577476D02*
X10980905Y-13587000D01*
X10990429Y-13596524D01*
X10999952Y-13587000D01*
X10990429Y-13577476D01*
X10990429Y-13596524D01*
X11114238Y-13777476D02*
X11095190Y-13767952D01*
X11085667Y-13748905D01*
X11085667Y-13577476D01*
X11219000Y-13777476D02*
X11199952Y-13767952D01*
X11190428Y-13748905D01*
X11190428Y-13577476D01*
X11447571Y-13777476D02*
X11447571Y-13577476D01*
X11514238Y-13720333D01*
X11580905Y-13577476D01*
X11580905Y-13777476D01*
X11761857Y-13777476D02*
X11761857Y-13672714D01*
X11752333Y-13653667D01*
X11733286Y-13644143D01*
X11695190Y-13644143D01*
X11676143Y-13653667D01*
X11761857Y-13767952D02*
X11742809Y-13777476D01*
X11695190Y-13777476D01*
X11676143Y-13767952D01*
X11666619Y-13748905D01*
X11666619Y-13729857D01*
X11676143Y-13710809D01*
X11695190Y-13701286D01*
X11742809Y-13701286D01*
X11761857Y-13691762D01*
X11857095Y-13644143D02*
X11857095Y-13844143D01*
X11857095Y-13653667D02*
X11876143Y-13644143D01*
X11914238Y-13644143D01*
X11933286Y-13653667D01*
X11942809Y-13663190D01*
X11952333Y-13682238D01*
X11952333Y-13739381D01*
X11942809Y-13758428D01*
X11933286Y-13767952D01*
X11914238Y-13777476D01*
X11876143Y-13777476D01*
X11857095Y-13767952D01*
X12038048Y-13758428D02*
X12047571Y-13767952D01*
X12038048Y-13777476D01*
X12028524Y-13767952D01*
X12038048Y-13758428D01*
X12038048Y-13777476D01*
X12038048Y-13653667D02*
X12047571Y-13663190D01*
X12038048Y-13672714D01*
X12028524Y-13663190D01*
X12038048Y-13653667D01*
X12038048Y-13672714D01*
D12*
X10344000Y-14074500D02*
X10409000Y-14139500D01*
X10409000Y-14074500D02*
X10344000Y-14139500D01*
D11*
X10704714Y-13997476D02*
X10723762Y-13997476D01*
X10742810Y-14007000D01*
X10752333Y-14016524D01*
X10761857Y-14035571D01*
X10771381Y-14073667D01*
X10771381Y-14121286D01*
X10761857Y-14159381D01*
X10752333Y-14178428D01*
X10742810Y-14187952D01*
X10723762Y-14197476D01*
X10704714Y-14197476D01*
X10685667Y-14187952D01*
X10676143Y-14178428D01*
X10666619Y-14159381D01*
X10657095Y-14121286D01*
X10657095Y-14073667D01*
X10666619Y-14035571D01*
X10676143Y-14016524D01*
X10685667Y-14007000D01*
X10704714Y-13997476D01*
X10857095Y-14178428D02*
X10866619Y-14187952D01*
X10857095Y-14197476D01*
X10847571Y-14187952D01*
X10857095Y-14178428D01*
X10857095Y-14197476D01*
X11038048Y-13997476D02*
X10999952Y-13997476D01*
X10980905Y-14007000D01*
X10971381Y-14016524D01*
X10952333Y-14045095D01*
X10942810Y-14083190D01*
X10942810Y-14159381D01*
X10952333Y-14178428D01*
X10961857Y-14187952D01*
X10980905Y-14197476D01*
X11019000Y-14197476D01*
X11038048Y-14187952D01*
X11047571Y-14178428D01*
X11057095Y-14159381D01*
X11057095Y-14111762D01*
X11047571Y-14092714D01*
X11038048Y-14083190D01*
X11019000Y-14073667D01*
X10980905Y-14073667D01*
X10961857Y-14083190D01*
X10952333Y-14092714D01*
X10942810Y-14111762D01*
X11238048Y-13997476D02*
X11142810Y-13997476D01*
X11133286Y-14092714D01*
X11142810Y-14083190D01*
X11161857Y-14073667D01*
X11209476Y-14073667D01*
X11228524Y-14083190D01*
X11238048Y-14092714D01*
X11247571Y-14111762D01*
X11247571Y-14159381D01*
X11238048Y-14178428D01*
X11228524Y-14187952D01*
X11209476Y-14197476D01*
X11161857Y-14197476D01*
X11142810Y-14187952D01*
X11133286Y-14178428D01*
X11371381Y-13997476D02*
X11390428Y-13997476D01*
X11409476Y-14007000D01*
X11419000Y-14016524D01*
X11428524Y-14035571D01*
X11438048Y-14073667D01*
X11438048Y-14121286D01*
X11428524Y-14159381D01*
X11419000Y-14178428D01*
X11409476Y-14187952D01*
X11390428Y-14197476D01*
X11371381Y-14197476D01*
X11352333Y-14187952D01*
X11342809Y-14178428D01*
X11333286Y-14159381D01*
X11323762Y-14121286D01*
X11323762Y-14073667D01*
X11333286Y-14035571D01*
X11342809Y-14016524D01*
X11352333Y-14007000D01*
X11371381Y-13997476D01*
X11523762Y-14197476D02*
X11523762Y-14064143D01*
X11523762Y-14083190D02*
X11533286Y-14073667D01*
X11552333Y-14064143D01*
X11580905Y-14064143D01*
X11599952Y-14073667D01*
X11609476Y-14092714D01*
X11609476Y-14197476D01*
X11609476Y-14092714D02*
X11619000Y-14073667D01*
X11638048Y-14064143D01*
X11666619Y-14064143D01*
X11685667Y-14073667D01*
X11695190Y-14092714D01*
X11695190Y-14197476D01*
X11790428Y-14197476D02*
X11790428Y-14064143D01*
X11790428Y-14083190D02*
X11799952Y-14073667D01*
X11819000Y-14064143D01*
X11847571Y-14064143D01*
X11866619Y-14073667D01*
X11876143Y-14092714D01*
X11876143Y-14197476D01*
X11876143Y-14092714D02*
X11885667Y-14073667D01*
X11904714Y-14064143D01*
X11933286Y-14064143D01*
X11952333Y-14073667D01*
X11961857Y-14092714D01*
X11961857Y-14197476D01*
X12352333Y-13987952D02*
X12180905Y-14245095D01*
X12609476Y-13997476D02*
X12628524Y-13997476D01*
X12647571Y-14007000D01*
X12657095Y-14016524D01*
X12666619Y-14035571D01*
X12676143Y-14073667D01*
X12676143Y-14121286D01*
X12666619Y-14159381D01*
X12657095Y-14178428D01*
X12647571Y-14187952D01*
X12628524Y-14197476D01*
X12609476Y-14197476D01*
X12590428Y-14187952D01*
X12580905Y-14178428D01*
X12571381Y-14159381D01*
X12561857Y-14121286D01*
X12561857Y-14073667D01*
X12571381Y-14035571D01*
X12580905Y-14016524D01*
X12590428Y-14007000D01*
X12609476Y-13997476D01*
X12761857Y-14178428D02*
X12771381Y-14187952D01*
X12761857Y-14197476D01*
X12752333Y-14187952D01*
X12761857Y-14178428D01*
X12761857Y-14197476D01*
X12895190Y-13997476D02*
X12914238Y-13997476D01*
X12933286Y-14007000D01*
X12942809Y-14016524D01*
X12952333Y-14035571D01*
X12961857Y-14073667D01*
X12961857Y-14121286D01*
X12952333Y-14159381D01*
X12942809Y-14178428D01*
X12933286Y-14187952D01*
X12914238Y-14197476D01*
X12895190Y-14197476D01*
X12876143Y-14187952D01*
X12866619Y-14178428D01*
X12857095Y-14159381D01*
X12847571Y-14121286D01*
X12847571Y-14073667D01*
X12857095Y-14035571D01*
X12866619Y-14016524D01*
X12876143Y-14007000D01*
X12895190Y-13997476D01*
X13038048Y-14016524D02*
X13047571Y-14007000D01*
X13066619Y-13997476D01*
X13114238Y-13997476D01*
X13133286Y-14007000D01*
X13142809Y-14016524D01*
X13152333Y-14035571D01*
X13152333Y-14054619D01*
X13142809Y-14083190D01*
X13028524Y-14197476D01*
X13152333Y-14197476D01*
X13333286Y-13997476D02*
X13238048Y-13997476D01*
X13228524Y-14092714D01*
X13238048Y-14083190D01*
X13257095Y-14073667D01*
X13304714Y-14073667D01*
X13323762Y-14083190D01*
X13333286Y-14092714D01*
X13342809Y-14111762D01*
X13342809Y-14159381D01*
X13333286Y-14178428D01*
X13323762Y-14187952D01*
X13304714Y-14197476D01*
X13257095Y-14197476D01*
X13238048Y-14187952D01*
X13228524Y-14178428D01*
X13514238Y-13997476D02*
X13476143Y-13997476D01*
X13457095Y-14007000D01*
X13447571Y-14016524D01*
X13428524Y-14045095D01*
X13419000Y-14083190D01*
X13419000Y-14159381D01*
X13428524Y-14178428D01*
X13438048Y-14187952D01*
X13457095Y-14197476D01*
X13495190Y-14197476D01*
X13514238Y-14187952D01*
X13523762Y-14178428D01*
X13533286Y-14159381D01*
X13533286Y-14111762D01*
X13523762Y-14092714D01*
X13514238Y-14083190D01*
X13495190Y-14073667D01*
X13457095Y-14073667D01*
X13438048Y-14083190D01*
X13428524Y-14092714D01*
X13419000Y-14111762D01*
X13609476Y-13997476D02*
X13609476Y-14035571D01*
X13685667Y-13997476D02*
X13685667Y-14035571D01*
X13980905Y-14273667D02*
X13971381Y-14264143D01*
X13952333Y-14235571D01*
X13942809Y-14216524D01*
X13933286Y-14187952D01*
X13923762Y-14140333D01*
X13923762Y-14102238D01*
X13933286Y-14054619D01*
X13942809Y-14026048D01*
X13952333Y-14007000D01*
X13971381Y-13978428D01*
X13980905Y-13968905D01*
X14047571Y-14016524D02*
X14057095Y-14007000D01*
X14076143Y-13997476D01*
X14123762Y-13997476D01*
X14142809Y-14007000D01*
X14152333Y-14016524D01*
X14161857Y-14035571D01*
X14161857Y-14054619D01*
X14152333Y-14083190D01*
X14038048Y-14197476D01*
X14161857Y-14197476D01*
X14399952Y-14197476D02*
X14399952Y-13997476D01*
X14485667Y-14197476D02*
X14485667Y-14092714D01*
X14476143Y-14073667D01*
X14457095Y-14064143D01*
X14428524Y-14064143D01*
X14409476Y-14073667D01*
X14399952Y-14083190D01*
X14609476Y-14197476D02*
X14590428Y-14187952D01*
X14580905Y-14178428D01*
X14571381Y-14159381D01*
X14571381Y-14102238D01*
X14580905Y-14083190D01*
X14590428Y-14073667D01*
X14609476Y-14064143D01*
X14638048Y-14064143D01*
X14657095Y-14073667D01*
X14666619Y-14083190D01*
X14676143Y-14102238D01*
X14676143Y-14159381D01*
X14666619Y-14178428D01*
X14657095Y-14187952D01*
X14638048Y-14197476D01*
X14609476Y-14197476D01*
X14790428Y-14197476D02*
X14771381Y-14187952D01*
X14761857Y-14168905D01*
X14761857Y-13997476D01*
X14942809Y-14187952D02*
X14923762Y-14197476D01*
X14885667Y-14197476D01*
X14866619Y-14187952D01*
X14857095Y-14168905D01*
X14857095Y-14092714D01*
X14866619Y-14073667D01*
X14885667Y-14064143D01*
X14923762Y-14064143D01*
X14942809Y-14073667D01*
X14952333Y-14092714D01*
X14952333Y-14111762D01*
X14857095Y-14130809D01*
X15028524Y-14187952D02*
X15047571Y-14197476D01*
X15085667Y-14197476D01*
X15104714Y-14187952D01*
X15114238Y-14168905D01*
X15114238Y-14159381D01*
X15104714Y-14140333D01*
X15085667Y-14130809D01*
X15057095Y-14130809D01*
X15038048Y-14121286D01*
X15028524Y-14102238D01*
X15028524Y-14092714D01*
X15038048Y-14073667D01*
X15057095Y-14064143D01*
X15085667Y-14064143D01*
X15104714Y-14073667D01*
X15180905Y-14273667D02*
X15190428Y-14264143D01*
X15209476Y-14235571D01*
X15219000Y-14216524D01*
X15228524Y-14187952D01*
X15238048Y-14140333D01*
X15238048Y-14102238D01*
X15228524Y-14054619D01*
X15219000Y-14026048D01*
X15209476Y-14007000D01*
X15190428Y-13978428D01*
X15180905Y-13968905D01*
X15542809Y-14273667D02*
X15533286Y-14264143D01*
X15514238Y-14235571D01*
X15504714Y-14216524D01*
X15495190Y-14187952D01*
X15485667Y-14140333D01*
X15485667Y-14102238D01*
X15495190Y-14054619D01*
X15504714Y-14026048D01*
X15514238Y-14007000D01*
X15533286Y-13978428D01*
X15542809Y-13968905D01*
X15619000Y-14064143D02*
X15619000Y-14197476D01*
X15619000Y-14083190D02*
X15628524Y-14073667D01*
X15647571Y-14064143D01*
X15676143Y-14064143D01*
X15695190Y-14073667D01*
X15704714Y-14092714D01*
X15704714Y-14197476D01*
X15828524Y-14197476D02*
X15809476Y-14187952D01*
X15799952Y-14178428D01*
X15790428Y-14159381D01*
X15790428Y-14102238D01*
X15799952Y-14083190D01*
X15809476Y-14073667D01*
X15828524Y-14064143D01*
X15857095Y-14064143D01*
X15876143Y-14073667D01*
X15885667Y-14083190D01*
X15895190Y-14102238D01*
X15895190Y-14159381D01*
X15885667Y-14178428D01*
X15876143Y-14187952D01*
X15857095Y-14197476D01*
X15828524Y-14197476D01*
X15952333Y-14064143D02*
X16028524Y-14064143D01*
X15980905Y-13997476D02*
X15980905Y-14168905D01*
X15990428Y-14187952D01*
X16009476Y-14197476D01*
X16028524Y-14197476D01*
X16247571Y-14064143D02*
X16247571Y-14264143D01*
X16247571Y-14073667D02*
X16266619Y-14064143D01*
X16304714Y-14064143D01*
X16323762Y-14073667D01*
X16333286Y-14083190D01*
X16342809Y-14102238D01*
X16342809Y-14159381D01*
X16333286Y-14178428D01*
X16323762Y-14187952D01*
X16304714Y-14197476D01*
X16266619Y-14197476D01*
X16247571Y-14187952D01*
X16457095Y-14197476D02*
X16438048Y-14187952D01*
X16428524Y-14168905D01*
X16428524Y-13997476D01*
X16619000Y-14197476D02*
X16619000Y-14092714D01*
X16609476Y-14073667D01*
X16590428Y-14064143D01*
X16552333Y-14064143D01*
X16533286Y-14073667D01*
X16619000Y-14187952D02*
X16599952Y-14197476D01*
X16552333Y-14197476D01*
X16533286Y-14187952D01*
X16523762Y-14168905D01*
X16523762Y-14149857D01*
X16533286Y-14130809D01*
X16552333Y-14121286D01*
X16599952Y-14121286D01*
X16619000Y-14111762D01*
X16685667Y-14064143D02*
X16761857Y-14064143D01*
X16714238Y-13997476D02*
X16714238Y-14168905D01*
X16723762Y-14187952D01*
X16742809Y-14197476D01*
X16761857Y-14197476D01*
X16904714Y-14187952D02*
X16885667Y-14197476D01*
X16847571Y-14197476D01*
X16828524Y-14187952D01*
X16819000Y-14168905D01*
X16819000Y-14092714D01*
X16828524Y-14073667D01*
X16847571Y-14064143D01*
X16885667Y-14064143D01*
X16904714Y-14073667D01*
X16914238Y-14092714D01*
X16914238Y-14111762D01*
X16819000Y-14130809D01*
X17085667Y-14197476D02*
X17085667Y-13997476D01*
X17085667Y-14187952D02*
X17066619Y-14197476D01*
X17028524Y-14197476D01*
X17009476Y-14187952D01*
X16999952Y-14178428D01*
X16990429Y-14159381D01*
X16990429Y-14102238D01*
X16999952Y-14083190D01*
X17009476Y-14073667D01*
X17028524Y-14064143D01*
X17066619Y-14064143D01*
X17085667Y-14073667D01*
X17161857Y-14273667D02*
X17171381Y-14264143D01*
X17190429Y-14235571D01*
X17199952Y-14216524D01*
X17209476Y-14187952D01*
X17219000Y-14140333D01*
X17219000Y-14102238D01*
X17209476Y-14054619D01*
X17199952Y-14026048D01*
X17190429Y-14007000D01*
X17171381Y-13978428D01*
X17161857Y-13968905D01*
X10409000Y-14371000D02*
G75*
G03*
X10409000Y-14371000I-100000J0D01*
G01*
X10647571Y-14261476D02*
X10771381Y-14261476D01*
X10704714Y-14337667D01*
X10733286Y-14337667D01*
X10752333Y-14347190D01*
X10761857Y-14356714D01*
X10771381Y-14375762D01*
X10771381Y-14423381D01*
X10761857Y-14442428D01*
X10752333Y-14451952D01*
X10733286Y-14461476D01*
X10676143Y-14461476D01*
X10657095Y-14451952D01*
X10647571Y-14442428D01*
X10857095Y-14442428D02*
X10866619Y-14451952D01*
X10857095Y-14461476D01*
X10847571Y-14451952D01*
X10857095Y-14442428D01*
X10857095Y-14461476D01*
X11057095Y-14461476D02*
X10942810Y-14461476D01*
X10999952Y-14461476D02*
X10999952Y-14261476D01*
X10980905Y-14290048D01*
X10961857Y-14309095D01*
X10942810Y-14318619D01*
X11123762Y-14261476D02*
X11257095Y-14261476D01*
X11171381Y-14461476D01*
X11428524Y-14261476D02*
X11333286Y-14261476D01*
X11323762Y-14356714D01*
X11333286Y-14347190D01*
X11352333Y-14337667D01*
X11399952Y-14337667D01*
X11419000Y-14347190D01*
X11428524Y-14356714D01*
X11438048Y-14375762D01*
X11438048Y-14423381D01*
X11428524Y-14442428D01*
X11419000Y-14451952D01*
X11399952Y-14461476D01*
X11352333Y-14461476D01*
X11333286Y-14451952D01*
X11323762Y-14442428D01*
X11523762Y-14461476D02*
X11523762Y-14328143D01*
X11523762Y-14347190D02*
X11533286Y-14337667D01*
X11552333Y-14328143D01*
X11580905Y-14328143D01*
X11599952Y-14337667D01*
X11609476Y-14356714D01*
X11609476Y-14461476D01*
X11609476Y-14356714D02*
X11619000Y-14337667D01*
X11638048Y-14328143D01*
X11666619Y-14328143D01*
X11685667Y-14337667D01*
X11695190Y-14356714D01*
X11695190Y-14461476D01*
X11790428Y-14461476D02*
X11790428Y-14328143D01*
X11790428Y-14347190D02*
X11799952Y-14337667D01*
X11819000Y-14328143D01*
X11847571Y-14328143D01*
X11866619Y-14337667D01*
X11876143Y-14356714D01*
X11876143Y-14461476D01*
X11876143Y-14356714D02*
X11885667Y-14337667D01*
X11904714Y-14328143D01*
X11933286Y-14328143D01*
X11952333Y-14337667D01*
X11961857Y-14356714D01*
X11961857Y-14461476D01*
X12352333Y-14251952D02*
X12180905Y-14509095D01*
X12609476Y-14261476D02*
X12628524Y-14261476D01*
X12647571Y-14271000D01*
X12657095Y-14280524D01*
X12666619Y-14299571D01*
X12676143Y-14337667D01*
X12676143Y-14385286D01*
X12666619Y-14423381D01*
X12657095Y-14442428D01*
X12647571Y-14451952D01*
X12628524Y-14461476D01*
X12609476Y-14461476D01*
X12590428Y-14451952D01*
X12580905Y-14442428D01*
X12571381Y-14423381D01*
X12561857Y-14385286D01*
X12561857Y-14337667D01*
X12571381Y-14299571D01*
X12580905Y-14280524D01*
X12590428Y-14271000D01*
X12609476Y-14261476D01*
X12761857Y-14442428D02*
X12771381Y-14451952D01*
X12761857Y-14461476D01*
X12752333Y-14451952D01*
X12761857Y-14442428D01*
X12761857Y-14461476D01*
X12961857Y-14461476D02*
X12847571Y-14461476D01*
X12904714Y-14461476D02*
X12904714Y-14261476D01*
X12885667Y-14290048D01*
X12866619Y-14309095D01*
X12847571Y-14318619D01*
X13038048Y-14280524D02*
X13047571Y-14271000D01*
X13066619Y-14261476D01*
X13114238Y-14261476D01*
X13133286Y-14271000D01*
X13142809Y-14280524D01*
X13152333Y-14299571D01*
X13152333Y-14318619D01*
X13142809Y-14347190D01*
X13028524Y-14461476D01*
X13152333Y-14461476D01*
X13333286Y-14261476D02*
X13238048Y-14261476D01*
X13228524Y-14356714D01*
X13238048Y-14347190D01*
X13257095Y-14337667D01*
X13304714Y-14337667D01*
X13323762Y-14347190D01*
X13333286Y-14356714D01*
X13342809Y-14375762D01*
X13342809Y-14423381D01*
X13333286Y-14442428D01*
X13323762Y-14451952D01*
X13304714Y-14461476D01*
X13257095Y-14461476D01*
X13238048Y-14451952D01*
X13228524Y-14442428D01*
X13466619Y-14261476D02*
X13485667Y-14261476D01*
X13504714Y-14271000D01*
X13514238Y-14280524D01*
X13523762Y-14299571D01*
X13533286Y-14337667D01*
X13533286Y-14385286D01*
X13523762Y-14423381D01*
X13514238Y-14442428D01*
X13504714Y-14451952D01*
X13485667Y-14461476D01*
X13466619Y-14461476D01*
X13447571Y-14451952D01*
X13438048Y-14442428D01*
X13428524Y-14423381D01*
X13419000Y-14385286D01*
X13419000Y-14337667D01*
X13428524Y-14299571D01*
X13438048Y-14280524D01*
X13447571Y-14271000D01*
X13466619Y-14261476D01*
X13609476Y-14261476D02*
X13609476Y-14299571D01*
X13685667Y-14261476D02*
X13685667Y-14299571D01*
X13980905Y-14537667D02*
X13971381Y-14528143D01*
X13952333Y-14499571D01*
X13942809Y-14480524D01*
X13933286Y-14451952D01*
X13923762Y-14404333D01*
X13923762Y-14366238D01*
X13933286Y-14318619D01*
X13942809Y-14290048D01*
X13952333Y-14271000D01*
X13971381Y-14242428D01*
X13980905Y-14232905D01*
X14142809Y-14328143D02*
X14142809Y-14461476D01*
X14095190Y-14251952D02*
X14047571Y-14394809D01*
X14171381Y-14394809D01*
X14399952Y-14461476D02*
X14399952Y-14261476D01*
X14485667Y-14461476D02*
X14485667Y-14356714D01*
X14476143Y-14337667D01*
X14457095Y-14328143D01*
X14428524Y-14328143D01*
X14409476Y-14337667D01*
X14399952Y-14347190D01*
X14609476Y-14461476D02*
X14590428Y-14451952D01*
X14580905Y-14442428D01*
X14571381Y-14423381D01*
X14571381Y-14366238D01*
X14580905Y-14347190D01*
X14590428Y-14337667D01*
X14609476Y-14328143D01*
X14638048Y-14328143D01*
X14657095Y-14337667D01*
X14666619Y-14347190D01*
X14676143Y-14366238D01*
X14676143Y-14423381D01*
X14666619Y-14442428D01*
X14657095Y-14451952D01*
X14638048Y-14461476D01*
X14609476Y-14461476D01*
X14790428Y-14461476D02*
X14771381Y-14451952D01*
X14761857Y-14432905D01*
X14761857Y-14261476D01*
X14942809Y-14451952D02*
X14923762Y-14461476D01*
X14885667Y-14461476D01*
X14866619Y-14451952D01*
X14857095Y-14432905D01*
X14857095Y-14356714D01*
X14866619Y-14337667D01*
X14885667Y-14328143D01*
X14923762Y-14328143D01*
X14942809Y-14337667D01*
X14952333Y-14356714D01*
X14952333Y-14375762D01*
X14857095Y-14394809D01*
X15028524Y-14451952D02*
X15047571Y-14461476D01*
X15085667Y-14461476D01*
X15104714Y-14451952D01*
X15114238Y-14432905D01*
X15114238Y-14423381D01*
X15104714Y-14404333D01*
X15085667Y-14394809D01*
X15057095Y-14394809D01*
X15038048Y-14385286D01*
X15028524Y-14366238D01*
X15028524Y-14356714D01*
X15038048Y-14337667D01*
X15057095Y-14328143D01*
X15085667Y-14328143D01*
X15104714Y-14337667D01*
X15180905Y-14537667D02*
X15190428Y-14528143D01*
X15209476Y-14499571D01*
X15219000Y-14480524D01*
X15228524Y-14451952D01*
X15238048Y-14404333D01*
X15238048Y-14366238D01*
X15228524Y-14318619D01*
X15219000Y-14290048D01*
X15209476Y-14271000D01*
X15190428Y-14242428D01*
X15180905Y-14232905D01*
X15542809Y-14537667D02*
X15533286Y-14528143D01*
X15514238Y-14499571D01*
X15504714Y-14480524D01*
X15495190Y-14451952D01*
X15485667Y-14404333D01*
X15485667Y-14366238D01*
X15495190Y-14318619D01*
X15504714Y-14290048D01*
X15514238Y-14271000D01*
X15533286Y-14242428D01*
X15542809Y-14232905D01*
X15619000Y-14328143D02*
X15619000Y-14461476D01*
X15619000Y-14347190D02*
X15628524Y-14337667D01*
X15647571Y-14328143D01*
X15676143Y-14328143D01*
X15695190Y-14337667D01*
X15704714Y-14356714D01*
X15704714Y-14461476D01*
X15828524Y-14461476D02*
X15809476Y-14451952D01*
X15799952Y-14442428D01*
X15790428Y-14423381D01*
X15790428Y-14366238D01*
X15799952Y-14347190D01*
X15809476Y-14337667D01*
X15828524Y-14328143D01*
X15857095Y-14328143D01*
X15876143Y-14337667D01*
X15885667Y-14347190D01*
X15895190Y-14366238D01*
X15895190Y-14423381D01*
X15885667Y-14442428D01*
X15876143Y-14451952D01*
X15857095Y-14461476D01*
X15828524Y-14461476D01*
X15952333Y-14328143D02*
X16028524Y-14328143D01*
X15980905Y-14261476D02*
X15980905Y-14432905D01*
X15990428Y-14451952D01*
X16009476Y-14461476D01*
X16028524Y-14461476D01*
X16247571Y-14328143D02*
X16247571Y-14528143D01*
X16247571Y-14337667D02*
X16266619Y-14328143D01*
X16304714Y-14328143D01*
X16323762Y-14337667D01*
X16333286Y-14347190D01*
X16342809Y-14366238D01*
X16342809Y-14423381D01*
X16333286Y-14442428D01*
X16323762Y-14451952D01*
X16304714Y-14461476D01*
X16266619Y-14461476D01*
X16247571Y-14451952D01*
X16457095Y-14461476D02*
X16438048Y-14451952D01*
X16428524Y-14432905D01*
X16428524Y-14261476D01*
X16619000Y-14461476D02*
X16619000Y-14356714D01*
X16609476Y-14337667D01*
X16590428Y-14328143D01*
X16552333Y-14328143D01*
X16533286Y-14337667D01*
X16619000Y-14451952D02*
X16599952Y-14461476D01*
X16552333Y-14461476D01*
X16533286Y-14451952D01*
X16523762Y-14432905D01*
X16523762Y-14413857D01*
X16533286Y-14394809D01*
X16552333Y-14385286D01*
X16599952Y-14385286D01*
X16619000Y-14375762D01*
X16685667Y-14328143D02*
X16761857Y-14328143D01*
X16714238Y-14261476D02*
X16714238Y-14432905D01*
X16723762Y-14451952D01*
X16742809Y-14461476D01*
X16761857Y-14461476D01*
X16904714Y-14451952D02*
X16885667Y-14461476D01*
X16847571Y-14461476D01*
X16828524Y-14451952D01*
X16819000Y-14432905D01*
X16819000Y-14356714D01*
X16828524Y-14337667D01*
X16847571Y-14328143D01*
X16885667Y-14328143D01*
X16904714Y-14337667D01*
X16914238Y-14356714D01*
X16914238Y-14375762D01*
X16819000Y-14394809D01*
X17085667Y-14461476D02*
X17085667Y-14261476D01*
X17085667Y-14451952D02*
X17066619Y-14461476D01*
X17028524Y-14461476D01*
X17009476Y-14451952D01*
X16999952Y-14442428D01*
X16990429Y-14423381D01*
X16990429Y-14366238D01*
X16999952Y-14347190D01*
X17009476Y-14337667D01*
X17028524Y-14328143D01*
X17066619Y-14328143D01*
X17085667Y-14337667D01*
X17161857Y-14537667D02*
X17171381Y-14528143D01*
X17190429Y-14499571D01*
X17199952Y-14480524D01*
X17209476Y-14451952D01*
X17219000Y-14404333D01*
X17219000Y-14366238D01*
X17209476Y-14318619D01*
X17199952Y-14290048D01*
X17190429Y-14271000D01*
X17171381Y-14242428D01*
X17161857Y-14232905D01*
M02*
