%TF.GenerationSoftware,KiCad,Pcbnew,(6.0.7-1)-1*%
%TF.CreationDate,2023-03-19T13:44:45-04:00*%
%TF.ProjectId,smu_base,736d755f-6261-4736-952e-6b696361645f,rev?*%
%TF.SameCoordinates,Original*%
%TF.FileFunction,Legend,Bot*%
%TF.FilePolarity,Positive*%
%FSLAX46Y46*%
G04 Gerber Fmt 4.6, Leading zero omitted, Abs format (unit mm)*
G04 Created by KiCad (PCBNEW (6.0.7-1)-1) date 2023-03-19 13:44:45*
%MOMM*%
%LPD*%
G01*
G04 APERTURE LIST*
%ADD10R,1.700000X1.700000*%
%ADD11O,1.700000X1.700000*%
%ADD12C,0.609600*%
%ADD13C,3.175000*%
%ADD14C,0.650000*%
%ADD15O,2.100000X1.050000*%
%ADD16O,2.000000X1.000000*%
G04 APERTURE END LIST*
%TO.C,svg2mod*%
G36*
X117370226Y-94572033D02*
G01*
X117097806Y-97291226D01*
X117751232Y-100661550D01*
X119327314Y-104538102D01*
X121822865Y-108775983D01*
X124585424Y-112446126D01*
X127646892Y-115788020D01*
X130885539Y-118713874D01*
X134179633Y-121135899D01*
X137407445Y-122966305D01*
X140447246Y-124117303D01*
X135777556Y-124289241D01*
X131124444Y-124147626D01*
X126548597Y-123707896D01*
X122110697Y-122985493D01*
X117871431Y-121995855D01*
X113891484Y-120754423D01*
X110231541Y-119276637D01*
X106952286Y-117577936D01*
X104114406Y-115673761D01*
X104149167Y-97855687D01*
X107000628Y-96200466D01*
X110374122Y-94760994D01*
X114240766Y-93567164D01*
X118571678Y-92648871D01*
X117370226Y-94572033D01*
G37*
G36*
X134266382Y-91949980D02*
G01*
X139055123Y-92449290D01*
X143681863Y-93257609D01*
X148076398Y-94357074D01*
X152168524Y-95729822D01*
X155888039Y-97357990D01*
X159164739Y-99223715D01*
X161928421Y-101309135D01*
X164108882Y-103596386D01*
X165763602Y-106387218D01*
X166395594Y-109150948D01*
X166054580Y-111836144D01*
X164790280Y-114391372D01*
X162652414Y-116765199D01*
X159690705Y-118906192D01*
X155954872Y-120762916D01*
X151494636Y-122283939D01*
X146359718Y-123417828D01*
X147560830Y-121494881D01*
X147833208Y-118775819D01*
X147179910Y-115405563D01*
X145603998Y-111529035D01*
X143108531Y-107291158D01*
X140345908Y-103620830D01*
X137284290Y-100278826D01*
X134045470Y-97352935D01*
X130751238Y-94930946D01*
X127523387Y-93100651D01*
X124483708Y-91949839D01*
X129385842Y-91777542D01*
X134266382Y-91949980D01*
G37*
%TD*%
%LPC*%
D10*
%TO.C,J5*%
X145796000Y-83820000D03*
D11*
X143256000Y-83820000D03*
X140716000Y-83820000D03*
X138176000Y-83820000D03*
X135636000Y-83820000D03*
X133096000Y-83820000D03*
X130556000Y-83820000D03*
X128016000Y-83820000D03*
%TD*%
D12*
%TO.C,U8*%
X118475500Y-114328627D03*
%TD*%
D13*
%TO.C,REF\u002A\u002A*%
X170180000Y-127000000D03*
%TD*%
D10*
%TO.C,J6*%
X170205000Y-121920000D03*
D11*
X170205000Y-119380000D03*
X170205000Y-116840000D03*
X170205000Y-114300000D03*
X170205000Y-111760000D03*
X170205000Y-109220000D03*
X170205000Y-106680000D03*
X170205000Y-104140000D03*
%TD*%
D10*
%TO.C,J3*%
X149845000Y-132105000D03*
D11*
X147305000Y-132105000D03*
X144765000Y-132105000D03*
X142225000Y-132105000D03*
X139685000Y-132105000D03*
X137145000Y-132105000D03*
X134605000Y-132105000D03*
X132065000Y-132105000D03*
%TD*%
D14*
%TO.C,J1*%
X110487000Y-99410000D03*
X110487000Y-93630000D03*
D15*
X110987000Y-92200000D03*
D16*
X106807000Y-92200000D03*
X106807000Y-100840000D03*
D15*
X110987000Y-100840000D03*
%TD*%
D10*
%TO.C,J4*%
X167625000Y-83845000D03*
D11*
X165085000Y-83845000D03*
X162545000Y-83845000D03*
X160005000Y-83845000D03*
X157465000Y-83845000D03*
X154925000Y-83845000D03*
X152385000Y-83845000D03*
X149845000Y-83845000D03*
%TD*%
D13*
%TO.C,REF\u002A\u002A*%
X119380000Y-83820000D03*
%TD*%
%TO.C,REF\u002A\u002A*%
X170180000Y-99060000D03*
%TD*%
D10*
%TO.C,J7*%
X167615000Y-132105000D03*
D11*
X165075000Y-132105000D03*
X162535000Y-132105000D03*
X159995000Y-132105000D03*
X157455000Y-132105000D03*
X154915000Y-132105000D03*
%TD*%
D13*
%TO.C,REF\u002A\u002A*%
X118110000Y-132080000D03*
%TD*%
M02*
