M48
; DRILL file {KiCad (6.0.7-1)-1} date Sunday, March 19, 2023 at 01:44:48 PM
; FORMAT={-:-/ absolute / inch / decimal}
; #@! TF.CreationDate,2023-03-19T13:44:48-04:00
; #@! TF.GenerationSoftware,Kicad,Pcbnew,(6.0.7-1)-1
; #@! TF.FileFunction,Plated,1,4,PTH
FMAT,2
INCH
; #@! TA.AperFunction,Plated,PTH,ViaDrill
T1C0.0120
; #@! TA.AperFunction,Plated,PTH,ComponentDrill
T2C0.0120
; #@! TA.AperFunction,Plated,PTH,ComponentDrill
T3C0.0236
; #@! TA.AperFunction,Plated,PTH,ComponentDrill
T4C0.0394
%
G90
G05
T1
X4.181Y-5.213
X4.2Y-4.225
X4.2Y-4.325
X4.2285Y-4.7852
X4.2757Y-4.7853
X4.3605Y-3.2655
X4.3605Y-3.4545
X4.401Y-3.55
X4.428Y-3.674
X4.429Y-3.933
X4.461Y-3.705
X4.461Y-3.908
X4.502Y-3.8085
X4.538Y-3.787
X4.539Y-3.55
X4.551Y-3.865
X4.5518Y-3.7496
X4.576Y-4.662
X4.577Y-4.632
X4.616Y-4.3711
X4.672Y-4.3101
X4.6734Y-4.2587
X4.675Y-4.1961
X4.697Y-4.4128
X4.705Y-4.6811
X4.71Y-4.5971
X4.7307Y-4.3915
X4.779Y-4.7511
X4.806Y-4.855
X4.8381Y-3.5619
X4.85Y-4.882
X4.8649Y-4.6081
X4.884Y-4.4461
X4.895Y-4.929
X4.9389Y-4.6511
X4.939Y-4.327
X4.947Y-4.976
X4.9783Y-4.6057
X4.9925Y-4.0516
X4.993Y-5.023
X5.0114Y-4.6376
X5.0209Y-4.7531
X5.034Y-4.4961
X5.036Y-5.071
X5.068Y-3.52
X5.068Y-3.605
X5.068Y-3.69
X5.0859Y-5.1181
X5.1039Y-4.6081
X5.1155Y-4.1706
X5.15Y-4.914
X5.1582Y-4.0752
X5.171Y-4.882
X5.174Y-4.939
X5.195Y-4.031
X5.198Y-4.855
X5.202Y-4.97
X5.225Y-4.166
X5.23Y-5.0
X5.258Y-5.032
X5.277Y-4.075
X5.291Y-4.346
X5.292Y-4.38
X5.3175Y-4.1345
X5.32Y-4.7195
X5.413Y-4.198
X5.4135Y-4.75
X5.415Y-4.123
X5.419Y-4.031
X5.48Y-4.496
X5.4817Y-4.3733
X5.501Y-4.285
X5.505Y-4.725
X5.505Y-4.776
X5.541Y-3.925
X5.555Y-4.202
X5.5731Y-3.9287
X5.5756Y-3.839
X5.5845Y-3.7445
X5.6195Y-4.3745
X5.62Y-3.924
X5.62Y-4.496
X5.631Y-4.724
X5.631Y-4.775
X5.716Y-4.28
X5.7235Y-4.75
X5.764Y-4.168
X5.764Y-4.2
X5.808Y-4.489
X5.815Y-4.721
X5.815Y-4.778
X5.8542Y-4.1542
X5.87Y-4.1037
X5.976Y-4.055
X5.976Y-4.155
X5.994Y-4.083
X6.025Y-3.95
X6.055Y-4.045
X6.055Y-4.083
X6.066Y-4.5
X6.089Y-4.524
X6.092Y-4.6992
X6.1042Y-4.2834
X6.1054Y-4.2322
X6.134Y-4.74
X6.135Y-4.5
X6.159Y-4.524
X6.211Y-4.567
X6.231Y-4.942
X6.25Y-4.568
X6.25Y-4.732
X6.281Y-4.426
X6.2855Y-4.3895
X6.321Y-4.312
X6.3455Y-4.479
X6.4158Y-4.2578
X6.416Y-4.2066
T2
X4.6644Y-4.5011
X4.9095Y-4.2167
T4
X5.04Y-3.3
X5.14Y-3.3
X5.1994Y-5.201
X5.24Y-3.3
X5.2994Y-5.201
X5.34Y-3.3
X5.3994Y-5.201
X5.44Y-3.3
X5.4994Y-5.201
X5.54Y-3.3
X5.5994Y-5.201
X5.64Y-3.3
X5.6994Y-5.201
X5.74Y-3.3
X5.7994Y-5.201
X5.8994Y-3.301
X5.8994Y-5.201
X5.9994Y-3.301
X6.099Y-5.201
X6.0994Y-3.301
X6.199Y-5.201
X6.1994Y-3.301
X6.299Y-5.201
X6.2994Y-3.301
X6.399Y-5.201
X6.3994Y-3.301
X6.499Y-5.201
X6.4994Y-3.301
X6.599Y-5.201
X6.5994Y-3.301
X6.701Y-4.1
X6.701Y-4.2
X6.701Y-4.3
X6.701Y-4.4
X6.701Y-4.5
X6.701Y-4.6
X6.701Y-4.7
X6.701Y-4.8
T3
G00X4.2207Y-3.6299
M15
G01X4.1893Y-3.6299
M16
G05
G00X4.2207Y-3.9701
M15
G01X4.1893Y-3.9701
M16
G05
G00X4.3912Y-3.6299
M15
G01X4.3479Y-3.6299
M16
G05
G00X4.3912Y-3.9701
M15
G01X4.3479Y-3.9701
M16
G05
T0
M30
