%TF.GenerationSoftware,KiCad,Pcbnew,(6.0.7-1)-1*%
%TF.CreationDate,2023-03-19T13:44:45-04:00*%
%TF.ProjectId,smu_base,736d755f-6261-4736-952e-6b696361645f,rev?*%
%TF.SameCoordinates,Original*%
%TF.FileFunction,Soldermask,Bot*%
%TF.FilePolarity,Negative*%
%FSLAX46Y46*%
G04 Gerber Fmt 4.6, Leading zero omitted, Abs format (unit mm)*
G04 Created by KiCad (PCBNEW (6.0.7-1)-1) date 2023-03-19 13:44:45*
%MOMM*%
%LPD*%
G01*
G04 APERTURE LIST*
%ADD10R,1.700000X1.700000*%
%ADD11O,1.700000X1.700000*%
%ADD12C,0.609600*%
%ADD13C,3.175000*%
%ADD14C,0.650000*%
%ADD15O,2.100000X1.050000*%
%ADD16O,2.000000X1.000000*%
G04 APERTURE END LIST*
D10*
%TO.C,J5*%
X145796000Y-83820000D03*
D11*
X143256000Y-83820000D03*
X140716000Y-83820000D03*
X138176000Y-83820000D03*
X135636000Y-83820000D03*
X133096000Y-83820000D03*
X130556000Y-83820000D03*
X128016000Y-83820000D03*
%TD*%
D12*
%TO.C,U8*%
X118475500Y-114328627D03*
%TD*%
D13*
%TO.C,REF\u002A\u002A*%
X170180000Y-127000000D03*
%TD*%
D10*
%TO.C,J6*%
X170205000Y-121920000D03*
D11*
X170205000Y-119380000D03*
X170205000Y-116840000D03*
X170205000Y-114300000D03*
X170205000Y-111760000D03*
X170205000Y-109220000D03*
X170205000Y-106680000D03*
X170205000Y-104140000D03*
%TD*%
D10*
%TO.C,J3*%
X149845000Y-132105000D03*
D11*
X147305000Y-132105000D03*
X144765000Y-132105000D03*
X142225000Y-132105000D03*
X139685000Y-132105000D03*
X137145000Y-132105000D03*
X134605000Y-132105000D03*
X132065000Y-132105000D03*
%TD*%
D14*
%TO.C,J1*%
X110487000Y-99410000D03*
X110487000Y-93630000D03*
D15*
X110987000Y-92200000D03*
D16*
X106807000Y-92200000D03*
X106807000Y-100840000D03*
D15*
X110987000Y-100840000D03*
%TD*%
D10*
%TO.C,J4*%
X167625000Y-83845000D03*
D11*
X165085000Y-83845000D03*
X162545000Y-83845000D03*
X160005000Y-83845000D03*
X157465000Y-83845000D03*
X154925000Y-83845000D03*
X152385000Y-83845000D03*
X149845000Y-83845000D03*
%TD*%
D13*
%TO.C,REF\u002A\u002A*%
X119380000Y-83820000D03*
%TD*%
%TO.C,REF\u002A\u002A*%
X170180000Y-99060000D03*
%TD*%
D10*
%TO.C,J7*%
X167615000Y-132105000D03*
D11*
X165075000Y-132105000D03*
X162535000Y-132105000D03*
X159995000Y-132105000D03*
X157455000Y-132105000D03*
X154915000Y-132105000D03*
%TD*%
D13*
%TO.C,REF\u002A\u002A*%
X118110000Y-132080000D03*
%TD*%
M02*
