%TF.GenerationSoftware,KiCad,Pcbnew,(6.0.7-1)-1*%
%TF.CreationDate,2023-03-19T13:44:50-04:00*%
%TF.ProjectId,smu_base,736d755f-6261-4736-952e-6b696361645f,rev?*%
%TF.SameCoordinates,Original*%
%TF.FileFunction,Drillmap*%
%TF.FilePolarity,Positive*%
%FSLAX45Y45*%
G04 Gerber Fmt 4.5, Leading zero omitted, Abs format (unit mm)*
G04 Created by KiCad (PCBNEW (6.0.7-1)-1) date 2023-03-19 13:44:50*
%MOMM*%
%LPD*%
G01*
G04 APERTURE LIST*
%ADD10C,0.100000*%
%ADD11C,0.200000*%
%ADD12C,0.030480*%
%ADD13C,0.060000*%
G04 APERTURE END LIST*
D10*
X17272000Y-13462000D02*
X10414000Y-13462000D01*
X10414000Y-13462000D02*
X10414000Y-8128000D01*
X10414000Y-8128000D02*
X17272000Y-8128000D01*
X17272000Y-8128000D02*
X17272000Y-13462000D01*
D11*
D12*
X10604500Y-13225780D02*
X10634980Y-13256260D01*
X10634980Y-13225780D02*
X10604500Y-13256260D01*
X10652760Y-10716260D02*
X10683240Y-10746740D01*
X10683240Y-10716260D02*
X10652760Y-10746740D01*
X10652760Y-10970260D02*
X10683240Y-11000740D01*
X10683240Y-10970260D02*
X10652760Y-11000740D01*
X10725160Y-12139160D02*
X10755640Y-12169640D01*
X10755640Y-12139160D02*
X10725160Y-12169640D01*
X10845160Y-12139300D02*
X10875640Y-12169780D01*
X10875640Y-12139300D02*
X10845160Y-12169780D01*
X11060460Y-8279160D02*
X11090940Y-8309640D01*
X11090940Y-8279160D02*
X11060460Y-8309640D01*
X11060460Y-8759160D02*
X11090940Y-8789640D01*
X11090940Y-8759160D02*
X11060460Y-8789640D01*
X11163300Y-9001760D02*
X11193780Y-9032240D01*
X11193780Y-9001760D02*
X11163300Y-9032240D01*
X11231880Y-9316720D02*
X11262360Y-9347200D01*
X11262360Y-9316720D02*
X11231880Y-9347200D01*
X11234420Y-9974580D02*
X11264900Y-10005060D01*
X11264900Y-9974580D02*
X11234420Y-10005060D01*
X11315700Y-9395460D02*
X11346180Y-9425940D01*
X11346180Y-9395460D02*
X11315700Y-9425940D01*
X11315700Y-9911080D02*
X11346180Y-9941560D01*
X11346180Y-9911080D02*
X11315700Y-9941560D01*
X11419840Y-9658470D02*
X11450320Y-9688950D01*
X11450320Y-9658470D02*
X11419840Y-9688950D01*
X11511280Y-9603740D02*
X11541760Y-9634220D01*
X11541760Y-9603740D02*
X11511280Y-9634220D01*
X11513820Y-9001760D02*
X11544300Y-9032240D01*
X11544300Y-9001760D02*
X11513820Y-9032240D01*
X11544300Y-9801860D02*
X11574780Y-9832340D01*
X11574780Y-9801860D02*
X11544300Y-9832340D01*
X11546260Y-9508760D02*
X11576740Y-9539240D01*
X11576740Y-9508760D02*
X11546260Y-9539240D01*
X11607716Y-11826145D02*
X11638196Y-11856625D01*
X11638196Y-11826145D02*
X11607716Y-11856625D01*
X11610340Y-11750040D02*
X11640820Y-11780520D01*
X11640820Y-11750040D02*
X11610340Y-11780520D01*
X11709400Y-11087423D02*
X11739880Y-11117903D01*
X11739880Y-11087423D02*
X11709400Y-11117903D01*
X11851640Y-10932483D02*
X11882120Y-10962963D01*
X11882120Y-10932483D02*
X11851640Y-10962963D01*
X11855070Y-10801923D02*
X11885550Y-10832403D01*
X11885550Y-10801923D02*
X11855070Y-10832403D01*
X11859260Y-10642923D02*
X11889740Y-10673403D01*
X11889740Y-10642923D02*
X11859260Y-10673403D01*
X11915140Y-11193293D02*
X11945620Y-11223773D01*
X11945620Y-11193293D02*
X11915140Y-11223773D01*
X11935460Y-11874823D02*
X11965940Y-11905303D01*
X11965940Y-11874823D02*
X11935460Y-11905303D01*
X11948160Y-11661463D02*
X11978640Y-11691943D01*
X11978640Y-11661463D02*
X11948160Y-11691943D01*
X12000699Y-11139081D02*
X12031179Y-11169561D01*
X12031179Y-11139081D02*
X12000699Y-11169561D01*
X12123420Y-12052623D02*
X12153900Y-12083103D01*
X12153900Y-12052623D02*
X12123420Y-12083103D01*
X12192000Y-12316460D02*
X12222480Y-12346940D01*
X12222480Y-12316460D02*
X12192000Y-12346940D01*
X12273510Y-9032010D02*
X12303990Y-9062490D01*
X12303990Y-9032010D02*
X12273510Y-9062490D01*
X12303760Y-12385040D02*
X12334240Y-12415520D01*
X12334240Y-12385040D02*
X12303760Y-12415520D01*
X12341730Y-11689403D02*
X12372210Y-11719883D01*
X12372210Y-11689403D02*
X12341730Y-11719883D01*
X12390120Y-11277923D02*
X12420600Y-11308403D01*
X12420600Y-11277923D02*
X12390120Y-11308403D01*
X12418060Y-12504420D02*
X12448540Y-12534900D01*
X12448540Y-12504420D02*
X12418060Y-12534900D01*
X12529690Y-11798623D02*
X12560170Y-11829103D01*
X12560170Y-11798623D02*
X12529690Y-11829103D01*
X12529820Y-10975340D02*
X12560300Y-11005820D01*
X12560300Y-10975340D02*
X12529820Y-11005820D01*
X12550140Y-12623800D02*
X12580620Y-12654280D01*
X12580620Y-12623800D02*
X12550140Y-12654280D01*
X12629577Y-11683303D02*
X12660057Y-11713783D01*
X12660057Y-11683303D02*
X12629577Y-11713783D01*
X12665660Y-10275943D02*
X12696140Y-10306423D01*
X12696140Y-10275943D02*
X12665660Y-10306423D01*
X12666980Y-12743180D02*
X12697460Y-12773660D01*
X12697460Y-12743180D02*
X12666980Y-12773660D01*
X12713810Y-11764363D02*
X12744290Y-11794843D01*
X12744290Y-11764363D02*
X12713810Y-11794843D01*
X12737970Y-12057703D02*
X12768450Y-12088183D01*
X12768450Y-12057703D02*
X12737970Y-12088183D01*
X12771120Y-11404923D02*
X12801600Y-11435403D01*
X12801600Y-11404923D02*
X12771120Y-11435403D01*
X12776200Y-12865100D02*
X12806680Y-12895580D01*
X12806680Y-12865100D02*
X12776200Y-12895580D01*
X12857480Y-8925560D02*
X12887960Y-8956040D01*
X12887960Y-8925560D02*
X12857480Y-8956040D01*
X12857480Y-9141460D02*
X12887960Y-9171940D01*
X12887960Y-9141460D02*
X12857480Y-9171940D01*
X12857480Y-9357360D02*
X12887960Y-9387840D01*
X12887960Y-9357360D02*
X12857480Y-9387840D01*
X12902920Y-12984760D02*
X12933400Y-13015240D01*
X12933400Y-12984760D02*
X12902920Y-13015240D01*
X12948790Y-11689403D02*
X12979270Y-11719883D01*
X12979270Y-11689403D02*
X12948790Y-11719883D01*
X12978160Y-10578123D02*
X13008640Y-10608603D01*
X13008640Y-10578123D02*
X12978160Y-10608603D01*
X13065760Y-12466320D02*
X13096240Y-12496800D01*
X13096240Y-12466320D02*
X13065760Y-12496800D01*
X13086498Y-10335678D02*
X13116978Y-10366158D01*
X13116978Y-10335678D02*
X13086498Y-10366158D01*
X13119100Y-12385040D02*
X13149580Y-12415520D01*
X13149580Y-12385040D02*
X13119100Y-12415520D01*
X13126720Y-12529820D02*
X13157200Y-12560300D01*
X13157200Y-12529820D02*
X13126720Y-12560300D01*
X13180060Y-10223500D02*
X13210540Y-10253980D01*
X13210540Y-10223500D02*
X13180060Y-10253980D01*
X13187680Y-12316460D02*
X13218160Y-12346940D01*
X13218160Y-12316460D02*
X13187680Y-12346940D01*
X13197840Y-12608560D02*
X13228320Y-12639040D01*
X13228320Y-12608560D02*
X13197840Y-12639040D01*
X13256260Y-10566400D02*
X13286740Y-10596880D01*
X13286740Y-10566400D02*
X13256260Y-10596880D01*
X13268960Y-12684760D02*
X13299440Y-12715240D01*
X13299440Y-12684760D02*
X13268960Y-12715240D01*
X13340080Y-12766040D02*
X13370560Y-12796520D01*
X13370560Y-12766040D02*
X13340080Y-12796520D01*
X13388340Y-10335260D02*
X13418820Y-10365740D01*
X13418820Y-10335260D02*
X13388340Y-10365740D01*
X13423900Y-11023600D02*
X13454380Y-11054080D01*
X13454380Y-11023600D02*
X13423900Y-11054080D01*
X13426440Y-11109960D02*
X13456920Y-11140440D01*
X13456920Y-11109960D02*
X13426440Y-11140440D01*
X13491140Y-10486460D02*
X13521620Y-10516940D01*
X13521620Y-10486460D02*
X13491140Y-10516940D01*
X13497560Y-11972340D02*
X13528040Y-12002820D01*
X13528040Y-11972340D02*
X13497560Y-12002820D01*
X13733780Y-10647680D02*
X13764260Y-10678160D01*
X13764260Y-10647680D02*
X13733780Y-10678160D01*
X13735000Y-12049760D02*
X13765480Y-12080240D01*
X13765480Y-12049760D02*
X13735000Y-12080240D01*
X13738860Y-10457180D02*
X13769340Y-10487660D01*
X13769340Y-10457180D02*
X13738860Y-10487660D01*
X13749020Y-10223500D02*
X13779500Y-10253980D01*
X13779500Y-10223500D02*
X13749020Y-10253980D01*
X13903960Y-11404600D02*
X13934440Y-11435080D01*
X13934440Y-11404600D02*
X13903960Y-11435080D01*
X13908360Y-11092860D02*
X13938840Y-11123340D01*
X13938840Y-11092860D02*
X13908360Y-11123340D01*
X13957300Y-10868660D02*
X13987780Y-10899140D01*
X13987780Y-10868660D02*
X13957300Y-10899140D01*
X13967460Y-11986260D02*
X13997940Y-12016740D01*
X13997940Y-11986260D02*
X13967460Y-12016740D01*
X13967460Y-12115800D02*
X13997940Y-12146280D01*
X13997940Y-12115800D02*
X13967460Y-12146280D01*
X14058900Y-9954260D02*
X14089380Y-9984740D01*
X14089380Y-9954260D02*
X14058900Y-9984740D01*
X14094460Y-10657840D02*
X14124940Y-10688320D01*
X14124940Y-10657840D02*
X14094460Y-10688320D01*
X14140323Y-9963576D02*
X14170803Y-9994056D01*
X14170803Y-9963576D02*
X14140323Y-9994056D01*
X14146790Y-9735712D02*
X14177270Y-9766192D01*
X14177270Y-9735712D02*
X14146790Y-9766192D01*
X14169420Y-9495760D02*
X14199900Y-9526240D01*
X14199900Y-9495760D02*
X14169420Y-9526240D01*
X14258360Y-11095920D02*
X14288840Y-11126400D01*
X14288840Y-11095920D02*
X14258360Y-11126400D01*
X14259560Y-9951720D02*
X14290040Y-9982200D01*
X14290040Y-9951720D02*
X14259560Y-9982200D01*
X14259560Y-11404600D02*
X14290040Y-11435080D01*
X14290040Y-11404600D02*
X14259560Y-11435080D01*
X14287500Y-11983720D02*
X14317980Y-12014200D01*
X14317980Y-11983720D02*
X14287500Y-12014200D01*
X14287500Y-12113260D02*
X14317980Y-12143740D01*
X14317980Y-12113260D02*
X14287500Y-12143740D01*
X14503400Y-10855960D02*
X14533880Y-10886440D01*
X14533880Y-10855960D02*
X14503400Y-10886440D01*
X14522400Y-12049760D02*
X14552880Y-12080240D01*
X14552880Y-12049760D02*
X14522400Y-12080240D01*
X14625320Y-10571480D02*
X14655800Y-10601960D01*
X14655800Y-10571480D02*
X14625320Y-10601960D01*
X14625320Y-10652760D02*
X14655800Y-10683240D01*
X14655800Y-10652760D02*
X14625320Y-10683240D01*
X14737080Y-11386820D02*
X14767560Y-11417300D01*
X14767560Y-11386820D02*
X14737080Y-11417300D01*
X14754860Y-11976100D02*
X14785340Y-12006580D01*
X14785340Y-11976100D02*
X14754860Y-12006580D01*
X14754860Y-12120880D02*
X14785340Y-12151360D01*
X14785340Y-12120880D02*
X14754860Y-12151360D01*
X14854460Y-10536460D02*
X14884940Y-10566940D01*
X14884940Y-10536460D02*
X14854460Y-10566940D01*
X14894560Y-10408110D02*
X14925040Y-10438590D01*
X14925040Y-10408110D02*
X14894560Y-10438590D01*
X15163800Y-10284460D02*
X15194280Y-10314940D01*
X15194280Y-10284460D02*
X15163800Y-10314940D01*
X15163800Y-10538460D02*
X15194280Y-10568940D01*
X15194280Y-10538460D02*
X15163800Y-10568940D01*
X15209520Y-10355580D02*
X15240000Y-10386060D01*
X15240000Y-10355580D02*
X15209520Y-10386060D01*
X15288260Y-10017760D02*
X15318740Y-10048240D01*
X15318740Y-10017760D02*
X15288260Y-10048240D01*
X15364460Y-10259060D02*
X15394940Y-10289540D01*
X15394940Y-10259060D02*
X15364460Y-10289540D01*
X15364460Y-10355580D02*
X15394940Y-10386060D01*
X15394940Y-10355580D02*
X15364460Y-10386060D01*
X15392400Y-11414760D02*
X15422880Y-11445240D01*
X15422880Y-11414760D02*
X15392400Y-11445240D01*
X15450820Y-11475720D02*
X15481300Y-11506200D01*
X15481300Y-11475720D02*
X15450820Y-11506200D01*
X15458440Y-11920760D02*
X15488920Y-11951240D01*
X15488920Y-11920760D02*
X15458440Y-11951240D01*
X15489540Y-10864560D02*
X15520020Y-10895040D01*
X15520020Y-10864560D02*
X15489540Y-10895040D01*
X15492540Y-10734560D02*
X15523020Y-10765040D01*
X15523020Y-10734560D02*
X15492540Y-10765040D01*
X15565120Y-12024360D02*
X15595600Y-12054840D01*
X15595600Y-12024360D02*
X15565120Y-12054840D01*
X15567660Y-11414760D02*
X15598140Y-11445240D01*
X15598140Y-11414760D02*
X15567660Y-11445240D01*
X15628660Y-11475760D02*
X15659140Y-11506240D01*
X15659140Y-11475760D02*
X15628660Y-11506240D01*
X15760700Y-11584940D02*
X15791180Y-11615420D01*
X15791180Y-11584940D02*
X15760700Y-11615420D01*
X15811500Y-12537440D02*
X15841980Y-12567920D01*
X15841980Y-12537440D02*
X15811500Y-12567920D01*
X15859760Y-11587480D02*
X15890240Y-11617960D01*
X15890240Y-11587480D02*
X15859760Y-11617960D01*
X15859760Y-12004040D02*
X15890240Y-12034520D01*
X15890240Y-12004040D02*
X15859760Y-12034520D01*
X15938500Y-11226800D02*
X15968980Y-11257280D01*
X15968980Y-11226800D02*
X15938500Y-11257280D01*
X15949960Y-11134060D02*
X15980440Y-11164540D01*
X15980440Y-11134060D02*
X15949960Y-11164540D01*
X16040100Y-10937240D02*
X16070580Y-10967720D01*
X16070580Y-10937240D02*
X16040100Y-10967720D01*
X16102300Y-11361420D02*
X16132780Y-11391900D01*
X16132780Y-11361420D02*
X16102300Y-11391900D01*
X16280980Y-10799560D02*
X16311460Y-10830040D01*
X16311460Y-10799560D02*
X16280980Y-10830040D01*
X16281440Y-10669560D02*
X16311920Y-10700040D01*
X16311920Y-10669560D02*
X16281440Y-10700040D01*
X11862790Y-11432863D02*
G75*
G03*
X11862790Y-11432863I-15240J0D01*
G01*
X12485340Y-10710463D02*
G75*
G03*
X12485340Y-10710463I-15240J0D01*
G01*
D13*
X10680700Y-9190000D02*
X10680700Y-9250000D01*
X10650700Y-9220000D02*
X10710700Y-9220000D01*
D11*
X10720700Y-9190000D02*
X10640700Y-9190000D01*
X10720700Y-9250000D02*
X10640700Y-9250000D01*
X10640700Y-9190000D02*
G75*
G03*
X10640700Y-9250000I0J-30000D01*
G01*
X10720700Y-9250000D02*
G75*
G03*
X10720700Y-9190000I0J30000D01*
G01*
D13*
X10680700Y-10054000D02*
X10680700Y-10114000D01*
X10650700Y-10084000D02*
X10710700Y-10084000D01*
D11*
X10720700Y-10054000D02*
X10640700Y-10054000D01*
X10720700Y-10114000D02*
X10640700Y-10114000D01*
X10640700Y-10054000D02*
G75*
G03*
X10640700Y-10114000I0J-30000D01*
G01*
X10720700Y-10114000D02*
G75*
G03*
X10720700Y-10054000I0J30000D01*
G01*
D13*
X11098700Y-9190000D02*
X11098700Y-9250000D01*
X11068700Y-9220000D02*
X11128700Y-9220000D01*
D11*
X11153700Y-9190000D02*
X11043700Y-9190000D01*
X11153700Y-9250000D02*
X11043700Y-9250000D01*
X11043700Y-9190000D02*
G75*
G03*
X11043700Y-9250000I0J-30000D01*
G01*
X11153700Y-9250000D02*
G75*
G03*
X11153700Y-9190000I0J30000D01*
G01*
D13*
X11098700Y-10054000D02*
X11098700Y-10114000D01*
X11068700Y-10084000D02*
X11128700Y-10084000D01*
D11*
X11153700Y-10054000D02*
X11043700Y-10054000D01*
X11153700Y-10114000D02*
X11043700Y-10114000D01*
X11043700Y-10054000D02*
G75*
G03*
X11043700Y-10114000I0J-30000D01*
G01*
X11153700Y-10114000D02*
G75*
G03*
X11153700Y-10054000I0J30000D01*
G01*
D10*
X12836956Y-8417356D02*
X12836956Y-8346644D01*
X12766244Y-8346644D01*
X12766244Y-8417356D01*
X12836956Y-8417356D01*
X13090956Y-8417356D02*
X13090956Y-8346644D01*
X13020244Y-8346644D01*
X13020244Y-8417356D01*
X13090956Y-8417356D01*
X13241856Y-13245856D02*
X13241856Y-13175144D01*
X13171144Y-13175144D01*
X13171144Y-13245856D01*
X13241856Y-13245856D01*
X13344956Y-8417356D02*
X13344956Y-8346644D01*
X13274244Y-8346644D01*
X13274244Y-8417356D01*
X13344956Y-8417356D01*
X13495856Y-13245856D02*
X13495856Y-13175144D01*
X13425144Y-13175144D01*
X13425144Y-13245856D01*
X13495856Y-13245856D01*
X13598956Y-8417356D02*
X13598956Y-8346644D01*
X13528244Y-8346644D01*
X13528244Y-8417356D01*
X13598956Y-8417356D01*
X13749856Y-13245856D02*
X13749856Y-13175144D01*
X13679144Y-13175144D01*
X13679144Y-13245856D01*
X13749856Y-13245856D01*
X13852956Y-8417356D02*
X13852956Y-8346644D01*
X13782244Y-8346644D01*
X13782244Y-8417356D01*
X13852956Y-8417356D01*
X14003856Y-13245856D02*
X14003856Y-13175144D01*
X13933144Y-13175144D01*
X13933144Y-13245856D01*
X14003856Y-13245856D01*
X14106956Y-8417356D02*
X14106956Y-8346644D01*
X14036244Y-8346644D01*
X14036244Y-8417356D01*
X14106956Y-8417356D01*
X14257856Y-13245856D02*
X14257856Y-13175144D01*
X14187144Y-13175144D01*
X14187144Y-13245856D01*
X14257856Y-13245856D01*
X14360956Y-8417356D02*
X14360956Y-8346644D01*
X14290244Y-8346644D01*
X14290244Y-8417356D01*
X14360956Y-8417356D01*
X14511856Y-13245856D02*
X14511856Y-13175144D01*
X14441144Y-13175144D01*
X14441144Y-13245856D01*
X14511856Y-13245856D01*
X14614956Y-8417356D02*
X14614956Y-8346644D01*
X14544244Y-8346644D01*
X14544244Y-8417356D01*
X14614956Y-8417356D01*
X14765856Y-13245856D02*
X14765856Y-13175144D01*
X14695144Y-13175144D01*
X14695144Y-13245856D01*
X14765856Y-13245856D01*
X15019856Y-8419856D02*
X15019856Y-8349144D01*
X14949144Y-8349144D01*
X14949144Y-8419856D01*
X15019856Y-8419856D01*
X15019856Y-13245856D02*
X15019856Y-13175144D01*
X14949144Y-13175144D01*
X14949144Y-13245856D01*
X15019856Y-13245856D01*
X15273856Y-8419856D02*
X15273856Y-8349144D01*
X15203144Y-8349144D01*
X15203144Y-8419856D01*
X15273856Y-8419856D01*
X15526856Y-13245856D02*
X15526856Y-13175144D01*
X15456144Y-13175144D01*
X15456144Y-13245856D01*
X15526856Y-13245856D01*
X15527856Y-8419856D02*
X15527856Y-8349144D01*
X15457144Y-8349144D01*
X15457144Y-8419856D01*
X15527856Y-8419856D01*
X15780856Y-13245856D02*
X15780856Y-13175144D01*
X15710144Y-13175144D01*
X15710144Y-13245856D01*
X15780856Y-13245856D01*
X15781856Y-8419856D02*
X15781856Y-8349144D01*
X15711144Y-8349144D01*
X15711144Y-8419856D01*
X15781856Y-8419856D01*
X16034856Y-13245856D02*
X16034856Y-13175144D01*
X15964144Y-13175144D01*
X15964144Y-13245856D01*
X16034856Y-13245856D01*
X16035856Y-8419856D02*
X16035856Y-8349144D01*
X15965144Y-8349144D01*
X15965144Y-8419856D01*
X16035856Y-8419856D01*
X16288856Y-13245856D02*
X16288856Y-13175144D01*
X16218144Y-13175144D01*
X16218144Y-13245856D01*
X16288856Y-13245856D01*
X16289856Y-8419856D02*
X16289856Y-8349144D01*
X16219144Y-8349144D01*
X16219144Y-8419856D01*
X16289856Y-8419856D01*
X16542856Y-13245856D02*
X16542856Y-13175144D01*
X16472144Y-13175144D01*
X16472144Y-13245856D01*
X16542856Y-13245856D01*
X16543856Y-8419856D02*
X16543856Y-8349144D01*
X16473144Y-8349144D01*
X16473144Y-8419856D01*
X16543856Y-8419856D01*
X16796856Y-13245856D02*
X16796856Y-13175144D01*
X16726144Y-13175144D01*
X16726144Y-13245856D01*
X16796856Y-13245856D01*
X16797856Y-8419856D02*
X16797856Y-8349144D01*
X16727144Y-8349144D01*
X16727144Y-8419856D01*
X16797856Y-8419856D01*
X17055856Y-10449356D02*
X17055856Y-10378644D01*
X16985144Y-10378644D01*
X16985144Y-10449356D01*
X17055856Y-10449356D01*
X17055856Y-10703356D02*
X17055856Y-10632644D01*
X16985144Y-10632644D01*
X16985144Y-10703356D01*
X17055856Y-10703356D01*
X17055856Y-10957356D02*
X17055856Y-10886644D01*
X16985144Y-10886644D01*
X16985144Y-10957356D01*
X17055856Y-10957356D01*
X17055856Y-11211356D02*
X17055856Y-11140644D01*
X16985144Y-11140644D01*
X16985144Y-11211356D01*
X17055856Y-11211356D01*
X17055856Y-11465356D02*
X17055856Y-11394644D01*
X16985144Y-11394644D01*
X16985144Y-11465356D01*
X17055856Y-11465356D01*
X17055856Y-11719356D02*
X17055856Y-11648644D01*
X16985144Y-11648644D01*
X16985144Y-11719356D01*
X17055856Y-11719356D01*
X17055856Y-11973356D02*
X17055856Y-11902644D01*
X16985144Y-11902644D01*
X16985144Y-11973356D01*
X17055856Y-11973356D01*
X17055856Y-12227356D02*
X17055856Y-12156644D01*
X16985144Y-12156644D01*
X16985144Y-12227356D01*
X17055856Y-12227356D01*
D11*
X10666619Y-13777476D02*
X10666619Y-13577476D01*
X10714238Y-13577476D01*
X10742810Y-13587000D01*
X10761857Y-13606048D01*
X10771381Y-13625095D01*
X10780905Y-13663190D01*
X10780905Y-13691762D01*
X10771381Y-13729857D01*
X10761857Y-13748905D01*
X10742810Y-13767952D01*
X10714238Y-13777476D01*
X10666619Y-13777476D01*
X10866619Y-13777476D02*
X10866619Y-13644143D01*
X10866619Y-13682238D02*
X10876143Y-13663190D01*
X10885667Y-13653667D01*
X10904714Y-13644143D01*
X10923762Y-13644143D01*
X10990429Y-13777476D02*
X10990429Y-13644143D01*
X10990429Y-13577476D02*
X10980905Y-13587000D01*
X10990429Y-13596524D01*
X10999952Y-13587000D01*
X10990429Y-13577476D01*
X10990429Y-13596524D01*
X11114238Y-13777476D02*
X11095190Y-13767952D01*
X11085667Y-13748905D01*
X11085667Y-13577476D01*
X11219000Y-13777476D02*
X11199952Y-13767952D01*
X11190428Y-13748905D01*
X11190428Y-13577476D01*
X11447571Y-13777476D02*
X11447571Y-13577476D01*
X11514238Y-13720333D01*
X11580905Y-13577476D01*
X11580905Y-13777476D01*
X11761857Y-13777476D02*
X11761857Y-13672714D01*
X11752333Y-13653667D01*
X11733286Y-13644143D01*
X11695190Y-13644143D01*
X11676143Y-13653667D01*
X11761857Y-13767952D02*
X11742809Y-13777476D01*
X11695190Y-13777476D01*
X11676143Y-13767952D01*
X11666619Y-13748905D01*
X11666619Y-13729857D01*
X11676143Y-13710809D01*
X11695190Y-13701286D01*
X11742809Y-13701286D01*
X11761857Y-13691762D01*
X11857095Y-13644143D02*
X11857095Y-13844143D01*
X11857095Y-13653667D02*
X11876143Y-13644143D01*
X11914238Y-13644143D01*
X11933286Y-13653667D01*
X11942809Y-13663190D01*
X11952333Y-13682238D01*
X11952333Y-13739381D01*
X11942809Y-13758428D01*
X11933286Y-13767952D01*
X11914238Y-13777476D01*
X11876143Y-13777476D01*
X11857095Y-13767952D01*
X12038048Y-13758428D02*
X12047571Y-13767952D01*
X12038048Y-13777476D01*
X12028524Y-13767952D01*
X12038048Y-13758428D01*
X12038048Y-13777476D01*
X12038048Y-13653667D02*
X12047571Y-13663190D01*
X12038048Y-13672714D01*
X12028524Y-13663190D01*
X12038048Y-13653667D01*
X12038048Y-13672714D01*
D12*
X10378520Y-14091760D02*
X10409000Y-14122240D01*
X10409000Y-14091760D02*
X10378520Y-14122240D01*
D11*
X10704714Y-13997476D02*
X10723762Y-13997476D01*
X10742810Y-14007000D01*
X10752333Y-14016524D01*
X10761857Y-14035571D01*
X10771381Y-14073667D01*
X10771381Y-14121286D01*
X10761857Y-14159381D01*
X10752333Y-14178428D01*
X10742810Y-14187952D01*
X10723762Y-14197476D01*
X10704714Y-14197476D01*
X10685667Y-14187952D01*
X10676143Y-14178428D01*
X10666619Y-14159381D01*
X10657095Y-14121286D01*
X10657095Y-14073667D01*
X10666619Y-14035571D01*
X10676143Y-14016524D01*
X10685667Y-14007000D01*
X10704714Y-13997476D01*
X10857095Y-14178428D02*
X10866619Y-14187952D01*
X10857095Y-14197476D01*
X10847571Y-14187952D01*
X10857095Y-14178428D01*
X10857095Y-14197476D01*
X10933286Y-13997476D02*
X11057095Y-13997476D01*
X10990429Y-14073667D01*
X11019000Y-14073667D01*
X11038048Y-14083190D01*
X11047571Y-14092714D01*
X11057095Y-14111762D01*
X11057095Y-14159381D01*
X11047571Y-14178428D01*
X11038048Y-14187952D01*
X11019000Y-14197476D01*
X10961857Y-14197476D01*
X10942810Y-14187952D01*
X10933286Y-14178428D01*
X11180905Y-13997476D02*
X11199952Y-13997476D01*
X11219000Y-14007000D01*
X11228524Y-14016524D01*
X11238048Y-14035571D01*
X11247571Y-14073667D01*
X11247571Y-14121286D01*
X11238048Y-14159381D01*
X11228524Y-14178428D01*
X11219000Y-14187952D01*
X11199952Y-14197476D01*
X11180905Y-14197476D01*
X11161857Y-14187952D01*
X11152333Y-14178428D01*
X11142810Y-14159381D01*
X11133286Y-14121286D01*
X11133286Y-14073667D01*
X11142810Y-14035571D01*
X11152333Y-14016524D01*
X11161857Y-14007000D01*
X11180905Y-13997476D01*
X11428524Y-13997476D02*
X11333286Y-13997476D01*
X11323762Y-14092714D01*
X11333286Y-14083190D01*
X11352333Y-14073667D01*
X11399952Y-14073667D01*
X11419000Y-14083190D01*
X11428524Y-14092714D01*
X11438048Y-14111762D01*
X11438048Y-14159381D01*
X11428524Y-14178428D01*
X11419000Y-14187952D01*
X11399952Y-14197476D01*
X11352333Y-14197476D01*
X11333286Y-14187952D01*
X11323762Y-14178428D01*
X11523762Y-14197476D02*
X11523762Y-14064143D01*
X11523762Y-14083190D02*
X11533286Y-14073667D01*
X11552333Y-14064143D01*
X11580905Y-14064143D01*
X11599952Y-14073667D01*
X11609476Y-14092714D01*
X11609476Y-14197476D01*
X11609476Y-14092714D02*
X11619000Y-14073667D01*
X11638048Y-14064143D01*
X11666619Y-14064143D01*
X11685667Y-14073667D01*
X11695190Y-14092714D01*
X11695190Y-14197476D01*
X11790428Y-14197476D02*
X11790428Y-14064143D01*
X11790428Y-14083190D02*
X11799952Y-14073667D01*
X11819000Y-14064143D01*
X11847571Y-14064143D01*
X11866619Y-14073667D01*
X11876143Y-14092714D01*
X11876143Y-14197476D01*
X11876143Y-14092714D02*
X11885667Y-14073667D01*
X11904714Y-14064143D01*
X11933286Y-14064143D01*
X11952333Y-14073667D01*
X11961857Y-14092714D01*
X11961857Y-14197476D01*
X12352333Y-13987952D02*
X12180905Y-14245095D01*
X12609476Y-13997476D02*
X12628524Y-13997476D01*
X12647571Y-14007000D01*
X12657095Y-14016524D01*
X12666619Y-14035571D01*
X12676143Y-14073667D01*
X12676143Y-14121286D01*
X12666619Y-14159381D01*
X12657095Y-14178428D01*
X12647571Y-14187952D01*
X12628524Y-14197476D01*
X12609476Y-14197476D01*
X12590428Y-14187952D01*
X12580905Y-14178428D01*
X12571381Y-14159381D01*
X12561857Y-14121286D01*
X12561857Y-14073667D01*
X12571381Y-14035571D01*
X12580905Y-14016524D01*
X12590428Y-14007000D01*
X12609476Y-13997476D01*
X12761857Y-14178428D02*
X12771381Y-14187952D01*
X12761857Y-14197476D01*
X12752333Y-14187952D01*
X12761857Y-14178428D01*
X12761857Y-14197476D01*
X12895190Y-13997476D02*
X12914238Y-13997476D01*
X12933286Y-14007000D01*
X12942809Y-14016524D01*
X12952333Y-14035571D01*
X12961857Y-14073667D01*
X12961857Y-14121286D01*
X12952333Y-14159381D01*
X12942809Y-14178428D01*
X12933286Y-14187952D01*
X12914238Y-14197476D01*
X12895190Y-14197476D01*
X12876143Y-14187952D01*
X12866619Y-14178428D01*
X12857095Y-14159381D01*
X12847571Y-14121286D01*
X12847571Y-14073667D01*
X12857095Y-14035571D01*
X12866619Y-14016524D01*
X12876143Y-14007000D01*
X12895190Y-13997476D01*
X13152333Y-14197476D02*
X13038048Y-14197476D01*
X13095190Y-14197476D02*
X13095190Y-13997476D01*
X13076143Y-14026048D01*
X13057095Y-14045095D01*
X13038048Y-14054619D01*
X13228524Y-14016524D02*
X13238048Y-14007000D01*
X13257095Y-13997476D01*
X13304714Y-13997476D01*
X13323762Y-14007000D01*
X13333286Y-14016524D01*
X13342809Y-14035571D01*
X13342809Y-14054619D01*
X13333286Y-14083190D01*
X13219000Y-14197476D01*
X13342809Y-14197476D01*
X13466619Y-13997476D02*
X13485667Y-13997476D01*
X13504714Y-14007000D01*
X13514238Y-14016524D01*
X13523762Y-14035571D01*
X13533286Y-14073667D01*
X13533286Y-14121286D01*
X13523762Y-14159381D01*
X13514238Y-14178428D01*
X13504714Y-14187952D01*
X13485667Y-14197476D01*
X13466619Y-14197476D01*
X13447571Y-14187952D01*
X13438048Y-14178428D01*
X13428524Y-14159381D01*
X13419000Y-14121286D01*
X13419000Y-14073667D01*
X13428524Y-14035571D01*
X13438048Y-14016524D01*
X13447571Y-14007000D01*
X13466619Y-13997476D01*
X13609476Y-13997476D02*
X13609476Y-14035571D01*
X13685667Y-13997476D02*
X13685667Y-14035571D01*
X13980905Y-14273667D02*
X13971381Y-14264143D01*
X13952333Y-14235571D01*
X13942809Y-14216524D01*
X13933286Y-14187952D01*
X13923762Y-14140333D01*
X13923762Y-14102238D01*
X13933286Y-14054619D01*
X13942809Y-14026048D01*
X13952333Y-14007000D01*
X13971381Y-13978428D01*
X13980905Y-13968905D01*
X14161857Y-14197476D02*
X14047571Y-14197476D01*
X14104714Y-14197476D02*
X14104714Y-13997476D01*
X14085667Y-14026048D01*
X14066619Y-14045095D01*
X14047571Y-14054619D01*
X14352333Y-14197476D02*
X14238048Y-14197476D01*
X14295190Y-14197476D02*
X14295190Y-13997476D01*
X14276143Y-14026048D01*
X14257095Y-14045095D01*
X14238048Y-14054619D01*
X14419000Y-13997476D02*
X14552333Y-13997476D01*
X14466619Y-14197476D01*
X14780905Y-14197476D02*
X14780905Y-13997476D01*
X14866619Y-14197476D02*
X14866619Y-14092714D01*
X14857095Y-14073667D01*
X14838048Y-14064143D01*
X14809476Y-14064143D01*
X14790428Y-14073667D01*
X14780905Y-14083190D01*
X14990428Y-14197476D02*
X14971381Y-14187952D01*
X14961857Y-14178428D01*
X14952333Y-14159381D01*
X14952333Y-14102238D01*
X14961857Y-14083190D01*
X14971381Y-14073667D01*
X14990428Y-14064143D01*
X15019000Y-14064143D01*
X15038048Y-14073667D01*
X15047571Y-14083190D01*
X15057095Y-14102238D01*
X15057095Y-14159381D01*
X15047571Y-14178428D01*
X15038048Y-14187952D01*
X15019000Y-14197476D01*
X14990428Y-14197476D01*
X15171381Y-14197476D02*
X15152333Y-14187952D01*
X15142809Y-14168905D01*
X15142809Y-13997476D01*
X15323762Y-14187952D02*
X15304714Y-14197476D01*
X15266619Y-14197476D01*
X15247571Y-14187952D01*
X15238048Y-14168905D01*
X15238048Y-14092714D01*
X15247571Y-14073667D01*
X15266619Y-14064143D01*
X15304714Y-14064143D01*
X15323762Y-14073667D01*
X15333286Y-14092714D01*
X15333286Y-14111762D01*
X15238048Y-14130809D01*
X15409476Y-14187952D02*
X15428524Y-14197476D01*
X15466619Y-14197476D01*
X15485667Y-14187952D01*
X15495190Y-14168905D01*
X15495190Y-14159381D01*
X15485667Y-14140333D01*
X15466619Y-14130809D01*
X15438048Y-14130809D01*
X15419000Y-14121286D01*
X15409476Y-14102238D01*
X15409476Y-14092714D01*
X15419000Y-14073667D01*
X15438048Y-14064143D01*
X15466619Y-14064143D01*
X15485667Y-14073667D01*
X15561857Y-14273667D02*
X15571381Y-14264143D01*
X15590428Y-14235571D01*
X15599952Y-14216524D01*
X15609476Y-14187952D01*
X15619000Y-14140333D01*
X15619000Y-14102238D01*
X15609476Y-14054619D01*
X15599952Y-14026048D01*
X15590428Y-14007000D01*
X15571381Y-13978428D01*
X15561857Y-13968905D01*
D12*
X10409000Y-14371000D02*
G75*
G03*
X10409000Y-14371000I-15240J0D01*
G01*
D11*
X10704714Y-14261476D02*
X10723762Y-14261476D01*
X10742810Y-14271000D01*
X10752333Y-14280524D01*
X10761857Y-14299571D01*
X10771381Y-14337667D01*
X10771381Y-14385286D01*
X10761857Y-14423381D01*
X10752333Y-14442428D01*
X10742810Y-14451952D01*
X10723762Y-14461476D01*
X10704714Y-14461476D01*
X10685667Y-14451952D01*
X10676143Y-14442428D01*
X10666619Y-14423381D01*
X10657095Y-14385286D01*
X10657095Y-14337667D01*
X10666619Y-14299571D01*
X10676143Y-14280524D01*
X10685667Y-14271000D01*
X10704714Y-14261476D01*
X10857095Y-14442428D02*
X10866619Y-14451952D01*
X10857095Y-14461476D01*
X10847571Y-14451952D01*
X10857095Y-14442428D01*
X10857095Y-14461476D01*
X10933286Y-14261476D02*
X11057095Y-14261476D01*
X10990429Y-14337667D01*
X11019000Y-14337667D01*
X11038048Y-14347190D01*
X11047571Y-14356714D01*
X11057095Y-14375762D01*
X11057095Y-14423381D01*
X11047571Y-14442428D01*
X11038048Y-14451952D01*
X11019000Y-14461476D01*
X10961857Y-14461476D01*
X10942810Y-14451952D01*
X10933286Y-14442428D01*
X11180905Y-14261476D02*
X11199952Y-14261476D01*
X11219000Y-14271000D01*
X11228524Y-14280524D01*
X11238048Y-14299571D01*
X11247571Y-14337667D01*
X11247571Y-14385286D01*
X11238048Y-14423381D01*
X11228524Y-14442428D01*
X11219000Y-14451952D01*
X11199952Y-14461476D01*
X11180905Y-14461476D01*
X11161857Y-14451952D01*
X11152333Y-14442428D01*
X11142810Y-14423381D01*
X11133286Y-14385286D01*
X11133286Y-14337667D01*
X11142810Y-14299571D01*
X11152333Y-14280524D01*
X11161857Y-14271000D01*
X11180905Y-14261476D01*
X11428524Y-14261476D02*
X11333286Y-14261476D01*
X11323762Y-14356714D01*
X11333286Y-14347190D01*
X11352333Y-14337667D01*
X11399952Y-14337667D01*
X11419000Y-14347190D01*
X11428524Y-14356714D01*
X11438048Y-14375762D01*
X11438048Y-14423381D01*
X11428524Y-14442428D01*
X11419000Y-14451952D01*
X11399952Y-14461476D01*
X11352333Y-14461476D01*
X11333286Y-14451952D01*
X11323762Y-14442428D01*
X11523762Y-14461476D02*
X11523762Y-14328143D01*
X11523762Y-14347190D02*
X11533286Y-14337667D01*
X11552333Y-14328143D01*
X11580905Y-14328143D01*
X11599952Y-14337667D01*
X11609476Y-14356714D01*
X11609476Y-14461476D01*
X11609476Y-14356714D02*
X11619000Y-14337667D01*
X11638048Y-14328143D01*
X11666619Y-14328143D01*
X11685667Y-14337667D01*
X11695190Y-14356714D01*
X11695190Y-14461476D01*
X11790428Y-14461476D02*
X11790428Y-14328143D01*
X11790428Y-14347190D02*
X11799952Y-14337667D01*
X11819000Y-14328143D01*
X11847571Y-14328143D01*
X11866619Y-14337667D01*
X11876143Y-14356714D01*
X11876143Y-14461476D01*
X11876143Y-14356714D02*
X11885667Y-14337667D01*
X11904714Y-14328143D01*
X11933286Y-14328143D01*
X11952333Y-14337667D01*
X11961857Y-14356714D01*
X11961857Y-14461476D01*
X12352333Y-14251952D02*
X12180905Y-14509095D01*
X12609476Y-14261476D02*
X12628524Y-14261476D01*
X12647571Y-14271000D01*
X12657095Y-14280524D01*
X12666619Y-14299571D01*
X12676143Y-14337667D01*
X12676143Y-14385286D01*
X12666619Y-14423381D01*
X12657095Y-14442428D01*
X12647571Y-14451952D01*
X12628524Y-14461476D01*
X12609476Y-14461476D01*
X12590428Y-14451952D01*
X12580905Y-14442428D01*
X12571381Y-14423381D01*
X12561857Y-14385286D01*
X12561857Y-14337667D01*
X12571381Y-14299571D01*
X12580905Y-14280524D01*
X12590428Y-14271000D01*
X12609476Y-14261476D01*
X12761857Y-14442428D02*
X12771381Y-14451952D01*
X12761857Y-14461476D01*
X12752333Y-14451952D01*
X12761857Y-14442428D01*
X12761857Y-14461476D01*
X12895190Y-14261476D02*
X12914238Y-14261476D01*
X12933286Y-14271000D01*
X12942809Y-14280524D01*
X12952333Y-14299571D01*
X12961857Y-14337667D01*
X12961857Y-14385286D01*
X12952333Y-14423381D01*
X12942809Y-14442428D01*
X12933286Y-14451952D01*
X12914238Y-14461476D01*
X12895190Y-14461476D01*
X12876143Y-14451952D01*
X12866619Y-14442428D01*
X12857095Y-14423381D01*
X12847571Y-14385286D01*
X12847571Y-14337667D01*
X12857095Y-14299571D01*
X12866619Y-14280524D01*
X12876143Y-14271000D01*
X12895190Y-14261476D01*
X13152333Y-14461476D02*
X13038048Y-14461476D01*
X13095190Y-14461476D02*
X13095190Y-14261476D01*
X13076143Y-14290048D01*
X13057095Y-14309095D01*
X13038048Y-14318619D01*
X13228524Y-14280524D02*
X13238048Y-14271000D01*
X13257095Y-14261476D01*
X13304714Y-14261476D01*
X13323762Y-14271000D01*
X13333286Y-14280524D01*
X13342809Y-14299571D01*
X13342809Y-14318619D01*
X13333286Y-14347190D01*
X13219000Y-14461476D01*
X13342809Y-14461476D01*
X13466619Y-14261476D02*
X13485667Y-14261476D01*
X13504714Y-14271000D01*
X13514238Y-14280524D01*
X13523762Y-14299571D01*
X13533286Y-14337667D01*
X13533286Y-14385286D01*
X13523762Y-14423381D01*
X13514238Y-14442428D01*
X13504714Y-14451952D01*
X13485667Y-14461476D01*
X13466619Y-14461476D01*
X13447571Y-14451952D01*
X13438048Y-14442428D01*
X13428524Y-14423381D01*
X13419000Y-14385286D01*
X13419000Y-14337667D01*
X13428524Y-14299571D01*
X13438048Y-14280524D01*
X13447571Y-14271000D01*
X13466619Y-14261476D01*
X13609476Y-14261476D02*
X13609476Y-14299571D01*
X13685667Y-14261476D02*
X13685667Y-14299571D01*
X13980905Y-14537667D02*
X13971381Y-14528143D01*
X13952333Y-14499571D01*
X13942809Y-14480524D01*
X13933286Y-14451952D01*
X13923762Y-14404333D01*
X13923762Y-14366238D01*
X13933286Y-14318619D01*
X13942809Y-14290048D01*
X13952333Y-14271000D01*
X13971381Y-14242428D01*
X13980905Y-14232905D01*
X14047571Y-14280524D02*
X14057095Y-14271000D01*
X14076143Y-14261476D01*
X14123762Y-14261476D01*
X14142809Y-14271000D01*
X14152333Y-14280524D01*
X14161857Y-14299571D01*
X14161857Y-14318619D01*
X14152333Y-14347190D01*
X14038048Y-14461476D01*
X14161857Y-14461476D01*
X14399952Y-14461476D02*
X14399952Y-14261476D01*
X14485667Y-14461476D02*
X14485667Y-14356714D01*
X14476143Y-14337667D01*
X14457095Y-14328143D01*
X14428524Y-14328143D01*
X14409476Y-14337667D01*
X14399952Y-14347190D01*
X14609476Y-14461476D02*
X14590428Y-14451952D01*
X14580905Y-14442428D01*
X14571381Y-14423381D01*
X14571381Y-14366238D01*
X14580905Y-14347190D01*
X14590428Y-14337667D01*
X14609476Y-14328143D01*
X14638048Y-14328143D01*
X14657095Y-14337667D01*
X14666619Y-14347190D01*
X14676143Y-14366238D01*
X14676143Y-14423381D01*
X14666619Y-14442428D01*
X14657095Y-14451952D01*
X14638048Y-14461476D01*
X14609476Y-14461476D01*
X14790428Y-14461476D02*
X14771381Y-14451952D01*
X14761857Y-14432905D01*
X14761857Y-14261476D01*
X14942809Y-14451952D02*
X14923762Y-14461476D01*
X14885667Y-14461476D01*
X14866619Y-14451952D01*
X14857095Y-14432905D01*
X14857095Y-14356714D01*
X14866619Y-14337667D01*
X14885667Y-14328143D01*
X14923762Y-14328143D01*
X14942809Y-14337667D01*
X14952333Y-14356714D01*
X14952333Y-14375762D01*
X14857095Y-14394809D01*
X15028524Y-14451952D02*
X15047571Y-14461476D01*
X15085667Y-14461476D01*
X15104714Y-14451952D01*
X15114238Y-14432905D01*
X15114238Y-14423381D01*
X15104714Y-14404333D01*
X15085667Y-14394809D01*
X15057095Y-14394809D01*
X15038048Y-14385286D01*
X15028524Y-14366238D01*
X15028524Y-14356714D01*
X15038048Y-14337667D01*
X15057095Y-14328143D01*
X15085667Y-14328143D01*
X15104714Y-14337667D01*
X15180905Y-14537667D02*
X15190428Y-14528143D01*
X15209476Y-14499571D01*
X15219000Y-14480524D01*
X15228524Y-14451952D01*
X15238048Y-14404333D01*
X15238048Y-14366238D01*
X15228524Y-14318619D01*
X15219000Y-14290048D01*
X15209476Y-14271000D01*
X15190428Y-14242428D01*
X15180905Y-14232905D01*
D13*
X10379000Y-14605000D02*
X10379000Y-14665000D01*
X10349000Y-14635000D02*
X10409000Y-14635000D01*
D11*
X10704714Y-14525476D02*
X10723762Y-14525476D01*
X10742810Y-14535000D01*
X10752333Y-14544524D01*
X10761857Y-14563571D01*
X10771381Y-14601667D01*
X10771381Y-14649286D01*
X10761857Y-14687381D01*
X10752333Y-14706428D01*
X10742810Y-14715952D01*
X10723762Y-14725476D01*
X10704714Y-14725476D01*
X10685667Y-14715952D01*
X10676143Y-14706428D01*
X10666619Y-14687381D01*
X10657095Y-14649286D01*
X10657095Y-14601667D01*
X10666619Y-14563571D01*
X10676143Y-14544524D01*
X10685667Y-14535000D01*
X10704714Y-14525476D01*
X10857095Y-14706428D02*
X10866619Y-14715952D01*
X10857095Y-14725476D01*
X10847571Y-14715952D01*
X10857095Y-14706428D01*
X10857095Y-14725476D01*
X11038048Y-14525476D02*
X10999952Y-14525476D01*
X10980905Y-14535000D01*
X10971381Y-14544524D01*
X10952333Y-14573095D01*
X10942810Y-14611190D01*
X10942810Y-14687381D01*
X10952333Y-14706428D01*
X10961857Y-14715952D01*
X10980905Y-14725476D01*
X11019000Y-14725476D01*
X11038048Y-14715952D01*
X11047571Y-14706428D01*
X11057095Y-14687381D01*
X11057095Y-14639762D01*
X11047571Y-14620714D01*
X11038048Y-14611190D01*
X11019000Y-14601667D01*
X10980905Y-14601667D01*
X10961857Y-14611190D01*
X10952333Y-14620714D01*
X10942810Y-14639762D01*
X11180905Y-14525476D02*
X11199952Y-14525476D01*
X11219000Y-14535000D01*
X11228524Y-14544524D01*
X11238048Y-14563571D01*
X11247571Y-14601667D01*
X11247571Y-14649286D01*
X11238048Y-14687381D01*
X11228524Y-14706428D01*
X11219000Y-14715952D01*
X11199952Y-14725476D01*
X11180905Y-14725476D01*
X11161857Y-14715952D01*
X11152333Y-14706428D01*
X11142810Y-14687381D01*
X11133286Y-14649286D01*
X11133286Y-14601667D01*
X11142810Y-14563571D01*
X11152333Y-14544524D01*
X11161857Y-14535000D01*
X11180905Y-14525476D01*
X11371381Y-14525476D02*
X11390428Y-14525476D01*
X11409476Y-14535000D01*
X11419000Y-14544524D01*
X11428524Y-14563571D01*
X11438048Y-14601667D01*
X11438048Y-14649286D01*
X11428524Y-14687381D01*
X11419000Y-14706428D01*
X11409476Y-14715952D01*
X11390428Y-14725476D01*
X11371381Y-14725476D01*
X11352333Y-14715952D01*
X11342809Y-14706428D01*
X11333286Y-14687381D01*
X11323762Y-14649286D01*
X11323762Y-14601667D01*
X11333286Y-14563571D01*
X11342809Y-14544524D01*
X11352333Y-14535000D01*
X11371381Y-14525476D01*
X11523762Y-14725476D02*
X11523762Y-14592143D01*
X11523762Y-14611190D02*
X11533286Y-14601667D01*
X11552333Y-14592143D01*
X11580905Y-14592143D01*
X11599952Y-14601667D01*
X11609476Y-14620714D01*
X11609476Y-14725476D01*
X11609476Y-14620714D02*
X11619000Y-14601667D01*
X11638048Y-14592143D01*
X11666619Y-14592143D01*
X11685667Y-14601667D01*
X11695190Y-14620714D01*
X11695190Y-14725476D01*
X11790428Y-14725476D02*
X11790428Y-14592143D01*
X11790428Y-14611190D02*
X11799952Y-14601667D01*
X11819000Y-14592143D01*
X11847571Y-14592143D01*
X11866619Y-14601667D01*
X11876143Y-14620714D01*
X11876143Y-14725476D01*
X11876143Y-14620714D02*
X11885667Y-14601667D01*
X11904714Y-14592143D01*
X11933286Y-14592143D01*
X11952333Y-14601667D01*
X11961857Y-14620714D01*
X11961857Y-14725476D01*
X12352333Y-14515952D02*
X12180905Y-14773095D01*
X12609476Y-14525476D02*
X12628524Y-14525476D01*
X12647571Y-14535000D01*
X12657095Y-14544524D01*
X12666619Y-14563571D01*
X12676143Y-14601667D01*
X12676143Y-14649286D01*
X12666619Y-14687381D01*
X12657095Y-14706428D01*
X12647571Y-14715952D01*
X12628524Y-14725476D01*
X12609476Y-14725476D01*
X12590428Y-14715952D01*
X12580905Y-14706428D01*
X12571381Y-14687381D01*
X12561857Y-14649286D01*
X12561857Y-14601667D01*
X12571381Y-14563571D01*
X12580905Y-14544524D01*
X12590428Y-14535000D01*
X12609476Y-14525476D01*
X12761857Y-14706428D02*
X12771381Y-14715952D01*
X12761857Y-14725476D01*
X12752333Y-14715952D01*
X12761857Y-14706428D01*
X12761857Y-14725476D01*
X12895190Y-14525476D02*
X12914238Y-14525476D01*
X12933286Y-14535000D01*
X12942809Y-14544524D01*
X12952333Y-14563571D01*
X12961857Y-14601667D01*
X12961857Y-14649286D01*
X12952333Y-14687381D01*
X12942809Y-14706428D01*
X12933286Y-14715952D01*
X12914238Y-14725476D01*
X12895190Y-14725476D01*
X12876143Y-14715952D01*
X12866619Y-14706428D01*
X12857095Y-14687381D01*
X12847571Y-14649286D01*
X12847571Y-14601667D01*
X12857095Y-14563571D01*
X12866619Y-14544524D01*
X12876143Y-14535000D01*
X12895190Y-14525476D01*
X13038048Y-14544524D02*
X13047571Y-14535000D01*
X13066619Y-14525476D01*
X13114238Y-14525476D01*
X13133286Y-14535000D01*
X13142809Y-14544524D01*
X13152333Y-14563571D01*
X13152333Y-14582619D01*
X13142809Y-14611190D01*
X13028524Y-14725476D01*
X13152333Y-14725476D01*
X13219000Y-14525476D02*
X13342809Y-14525476D01*
X13276143Y-14601667D01*
X13304714Y-14601667D01*
X13323762Y-14611190D01*
X13333286Y-14620714D01*
X13342809Y-14639762D01*
X13342809Y-14687381D01*
X13333286Y-14706428D01*
X13323762Y-14715952D01*
X13304714Y-14725476D01*
X13247571Y-14725476D01*
X13228524Y-14715952D01*
X13219000Y-14706428D01*
X13514238Y-14525476D02*
X13476143Y-14525476D01*
X13457095Y-14535000D01*
X13447571Y-14544524D01*
X13428524Y-14573095D01*
X13419000Y-14611190D01*
X13419000Y-14687381D01*
X13428524Y-14706428D01*
X13438048Y-14715952D01*
X13457095Y-14725476D01*
X13495190Y-14725476D01*
X13514238Y-14715952D01*
X13523762Y-14706428D01*
X13533286Y-14687381D01*
X13533286Y-14639762D01*
X13523762Y-14620714D01*
X13514238Y-14611190D01*
X13495190Y-14601667D01*
X13457095Y-14601667D01*
X13438048Y-14611190D01*
X13428524Y-14620714D01*
X13419000Y-14639762D01*
X13609476Y-14525476D02*
X13609476Y-14563571D01*
X13685667Y-14525476D02*
X13685667Y-14563571D01*
X13980905Y-14801667D02*
X13971381Y-14792143D01*
X13952333Y-14763571D01*
X13942809Y-14744524D01*
X13933286Y-14715952D01*
X13923762Y-14668333D01*
X13923762Y-14630238D01*
X13933286Y-14582619D01*
X13942809Y-14554048D01*
X13952333Y-14535000D01*
X13971381Y-14506428D01*
X13980905Y-14496905D01*
X14095190Y-14525476D02*
X14114238Y-14525476D01*
X14133286Y-14535000D01*
X14142809Y-14544524D01*
X14152333Y-14563571D01*
X14161857Y-14601667D01*
X14161857Y-14649286D01*
X14152333Y-14687381D01*
X14142809Y-14706428D01*
X14133286Y-14715952D01*
X14114238Y-14725476D01*
X14095190Y-14725476D01*
X14076143Y-14715952D01*
X14066619Y-14706428D01*
X14057095Y-14687381D01*
X14047571Y-14649286D01*
X14047571Y-14601667D01*
X14057095Y-14563571D01*
X14066619Y-14544524D01*
X14076143Y-14535000D01*
X14095190Y-14525476D01*
X14399952Y-14725476D02*
X14399952Y-14525476D01*
X14485667Y-14725476D02*
X14485667Y-14620714D01*
X14476143Y-14601667D01*
X14457095Y-14592143D01*
X14428524Y-14592143D01*
X14409476Y-14601667D01*
X14399952Y-14611190D01*
X14609476Y-14725476D02*
X14590428Y-14715952D01*
X14580905Y-14706428D01*
X14571381Y-14687381D01*
X14571381Y-14630238D01*
X14580905Y-14611190D01*
X14590428Y-14601667D01*
X14609476Y-14592143D01*
X14638048Y-14592143D01*
X14657095Y-14601667D01*
X14666619Y-14611190D01*
X14676143Y-14630238D01*
X14676143Y-14687381D01*
X14666619Y-14706428D01*
X14657095Y-14715952D01*
X14638048Y-14725476D01*
X14609476Y-14725476D01*
X14790428Y-14725476D02*
X14771381Y-14715952D01*
X14761857Y-14696905D01*
X14761857Y-14525476D01*
X14942809Y-14715952D02*
X14923762Y-14725476D01*
X14885667Y-14725476D01*
X14866619Y-14715952D01*
X14857095Y-14696905D01*
X14857095Y-14620714D01*
X14866619Y-14601667D01*
X14885667Y-14592143D01*
X14923762Y-14592143D01*
X14942809Y-14601667D01*
X14952333Y-14620714D01*
X14952333Y-14639762D01*
X14857095Y-14658809D01*
X15028524Y-14715952D02*
X15047571Y-14725476D01*
X15085667Y-14725476D01*
X15104714Y-14715952D01*
X15114238Y-14696905D01*
X15114238Y-14687381D01*
X15104714Y-14668333D01*
X15085667Y-14658809D01*
X15057095Y-14658809D01*
X15038048Y-14649286D01*
X15028524Y-14630238D01*
X15028524Y-14620714D01*
X15038048Y-14601667D01*
X15057095Y-14592143D01*
X15085667Y-14592143D01*
X15104714Y-14601667D01*
X15352333Y-14649286D02*
X15504714Y-14649286D01*
X15428524Y-14725476D02*
X15428524Y-14573095D01*
X15838048Y-14592143D02*
X15838048Y-14725476D01*
X15790428Y-14515952D02*
X15742809Y-14658809D01*
X15866619Y-14658809D01*
X16085667Y-14715952D02*
X16104714Y-14725476D01*
X16142809Y-14725476D01*
X16161857Y-14715952D01*
X16171381Y-14696905D01*
X16171381Y-14687381D01*
X16161857Y-14668333D01*
X16142809Y-14658809D01*
X16114238Y-14658809D01*
X16095190Y-14649286D01*
X16085667Y-14630238D01*
X16085667Y-14620714D01*
X16095190Y-14601667D01*
X16114238Y-14592143D01*
X16142809Y-14592143D01*
X16161857Y-14601667D01*
X16285667Y-14725476D02*
X16266619Y-14715952D01*
X16257095Y-14696905D01*
X16257095Y-14525476D01*
X16390428Y-14725476D02*
X16371381Y-14715952D01*
X16361857Y-14706428D01*
X16352333Y-14687381D01*
X16352333Y-14630238D01*
X16361857Y-14611190D01*
X16371381Y-14601667D01*
X16390428Y-14592143D01*
X16419000Y-14592143D01*
X16438048Y-14601667D01*
X16447571Y-14611190D01*
X16457095Y-14630238D01*
X16457095Y-14687381D01*
X16447571Y-14706428D01*
X16438048Y-14715952D01*
X16419000Y-14725476D01*
X16390428Y-14725476D01*
X16514238Y-14592143D02*
X16590428Y-14592143D01*
X16542809Y-14525476D02*
X16542809Y-14696905D01*
X16552333Y-14715952D01*
X16571381Y-14725476D01*
X16590428Y-14725476D01*
X16647571Y-14715952D02*
X16666619Y-14725476D01*
X16704714Y-14725476D01*
X16723762Y-14715952D01*
X16733286Y-14696905D01*
X16733286Y-14687381D01*
X16723762Y-14668333D01*
X16704714Y-14658809D01*
X16676143Y-14658809D01*
X16657095Y-14649286D01*
X16647571Y-14630238D01*
X16647571Y-14620714D01*
X16657095Y-14601667D01*
X16676143Y-14592143D01*
X16704714Y-14592143D01*
X16723762Y-14601667D01*
X16799952Y-14801667D02*
X16809476Y-14792143D01*
X16828524Y-14763571D01*
X16838048Y-14744524D01*
X16847571Y-14715952D01*
X16857095Y-14668333D01*
X16857095Y-14630238D01*
X16847571Y-14582619D01*
X16838048Y-14554048D01*
X16828524Y-14535000D01*
X16809476Y-14506428D01*
X16799952Y-14496905D01*
D10*
X10394356Y-14934356D02*
X10394356Y-14863644D01*
X10323644Y-14863644D01*
X10323644Y-14934356D01*
X10394356Y-14934356D01*
D11*
X10771381Y-14989476D02*
X10657095Y-14989476D01*
X10714238Y-14989476D02*
X10714238Y-14789476D01*
X10695190Y-14818048D01*
X10676143Y-14837095D01*
X10657095Y-14846619D01*
X10857095Y-14970428D02*
X10866619Y-14979952D01*
X10857095Y-14989476D01*
X10847571Y-14979952D01*
X10857095Y-14970428D01*
X10857095Y-14989476D01*
X10990429Y-14789476D02*
X11009476Y-14789476D01*
X11028524Y-14799000D01*
X11038048Y-14808524D01*
X11047571Y-14827571D01*
X11057095Y-14865667D01*
X11057095Y-14913286D01*
X11047571Y-14951381D01*
X11038048Y-14970428D01*
X11028524Y-14979952D01*
X11009476Y-14989476D01*
X10990429Y-14989476D01*
X10971381Y-14979952D01*
X10961857Y-14970428D01*
X10952333Y-14951381D01*
X10942810Y-14913286D01*
X10942810Y-14865667D01*
X10952333Y-14827571D01*
X10961857Y-14808524D01*
X10971381Y-14799000D01*
X10990429Y-14789476D01*
X11180905Y-14789476D02*
X11199952Y-14789476D01*
X11219000Y-14799000D01*
X11228524Y-14808524D01*
X11238048Y-14827571D01*
X11247571Y-14865667D01*
X11247571Y-14913286D01*
X11238048Y-14951381D01*
X11228524Y-14970428D01*
X11219000Y-14979952D01*
X11199952Y-14989476D01*
X11180905Y-14989476D01*
X11161857Y-14979952D01*
X11152333Y-14970428D01*
X11142810Y-14951381D01*
X11133286Y-14913286D01*
X11133286Y-14865667D01*
X11142810Y-14827571D01*
X11152333Y-14808524D01*
X11161857Y-14799000D01*
X11180905Y-14789476D01*
X11371381Y-14789476D02*
X11390428Y-14789476D01*
X11409476Y-14799000D01*
X11419000Y-14808524D01*
X11428524Y-14827571D01*
X11438048Y-14865667D01*
X11438048Y-14913286D01*
X11428524Y-14951381D01*
X11419000Y-14970428D01*
X11409476Y-14979952D01*
X11390428Y-14989476D01*
X11371381Y-14989476D01*
X11352333Y-14979952D01*
X11342809Y-14970428D01*
X11333286Y-14951381D01*
X11323762Y-14913286D01*
X11323762Y-14865667D01*
X11333286Y-14827571D01*
X11342809Y-14808524D01*
X11352333Y-14799000D01*
X11371381Y-14789476D01*
X11523762Y-14989476D02*
X11523762Y-14856143D01*
X11523762Y-14875190D02*
X11533286Y-14865667D01*
X11552333Y-14856143D01*
X11580905Y-14856143D01*
X11599952Y-14865667D01*
X11609476Y-14884714D01*
X11609476Y-14989476D01*
X11609476Y-14884714D02*
X11619000Y-14865667D01*
X11638048Y-14856143D01*
X11666619Y-14856143D01*
X11685667Y-14865667D01*
X11695190Y-14884714D01*
X11695190Y-14989476D01*
X11790428Y-14989476D02*
X11790428Y-14856143D01*
X11790428Y-14875190D02*
X11799952Y-14865667D01*
X11819000Y-14856143D01*
X11847571Y-14856143D01*
X11866619Y-14865667D01*
X11876143Y-14884714D01*
X11876143Y-14989476D01*
X11876143Y-14884714D02*
X11885667Y-14865667D01*
X11904714Y-14856143D01*
X11933286Y-14856143D01*
X11952333Y-14865667D01*
X11961857Y-14884714D01*
X11961857Y-14989476D01*
X12352333Y-14779952D02*
X12180905Y-15037095D01*
X12609476Y-14789476D02*
X12628524Y-14789476D01*
X12647571Y-14799000D01*
X12657095Y-14808524D01*
X12666619Y-14827571D01*
X12676143Y-14865667D01*
X12676143Y-14913286D01*
X12666619Y-14951381D01*
X12657095Y-14970428D01*
X12647571Y-14979952D01*
X12628524Y-14989476D01*
X12609476Y-14989476D01*
X12590428Y-14979952D01*
X12580905Y-14970428D01*
X12571381Y-14951381D01*
X12561857Y-14913286D01*
X12561857Y-14865667D01*
X12571381Y-14827571D01*
X12580905Y-14808524D01*
X12590428Y-14799000D01*
X12609476Y-14789476D01*
X12761857Y-14970428D02*
X12771381Y-14979952D01*
X12761857Y-14989476D01*
X12752333Y-14979952D01*
X12761857Y-14970428D01*
X12761857Y-14989476D01*
X12895190Y-14789476D02*
X12914238Y-14789476D01*
X12933286Y-14799000D01*
X12942809Y-14808524D01*
X12952333Y-14827571D01*
X12961857Y-14865667D01*
X12961857Y-14913286D01*
X12952333Y-14951381D01*
X12942809Y-14970428D01*
X12933286Y-14979952D01*
X12914238Y-14989476D01*
X12895190Y-14989476D01*
X12876143Y-14979952D01*
X12866619Y-14970428D01*
X12857095Y-14951381D01*
X12847571Y-14913286D01*
X12847571Y-14865667D01*
X12857095Y-14827571D01*
X12866619Y-14808524D01*
X12876143Y-14799000D01*
X12895190Y-14789476D01*
X13028524Y-14789476D02*
X13152333Y-14789476D01*
X13085667Y-14865667D01*
X13114238Y-14865667D01*
X13133286Y-14875190D01*
X13142809Y-14884714D01*
X13152333Y-14903762D01*
X13152333Y-14951381D01*
X13142809Y-14970428D01*
X13133286Y-14979952D01*
X13114238Y-14989476D01*
X13057095Y-14989476D01*
X13038048Y-14979952D01*
X13028524Y-14970428D01*
X13247571Y-14989476D02*
X13285667Y-14989476D01*
X13304714Y-14979952D01*
X13314238Y-14970428D01*
X13333286Y-14941857D01*
X13342809Y-14903762D01*
X13342809Y-14827571D01*
X13333286Y-14808524D01*
X13323762Y-14799000D01*
X13304714Y-14789476D01*
X13266619Y-14789476D01*
X13247571Y-14799000D01*
X13238048Y-14808524D01*
X13228524Y-14827571D01*
X13228524Y-14875190D01*
X13238048Y-14894238D01*
X13247571Y-14903762D01*
X13266619Y-14913286D01*
X13304714Y-14913286D01*
X13323762Y-14903762D01*
X13333286Y-14894238D01*
X13342809Y-14875190D01*
X13514238Y-14856143D02*
X13514238Y-14989476D01*
X13466619Y-14779952D02*
X13419000Y-14922809D01*
X13542809Y-14922809D01*
X13609476Y-14789476D02*
X13609476Y-14827571D01*
X13685667Y-14789476D02*
X13685667Y-14827571D01*
X13980905Y-15065667D02*
X13971381Y-15056143D01*
X13952333Y-15027571D01*
X13942809Y-15008524D01*
X13933286Y-14979952D01*
X13923762Y-14932333D01*
X13923762Y-14894238D01*
X13933286Y-14846619D01*
X13942809Y-14818048D01*
X13952333Y-14799000D01*
X13971381Y-14770428D01*
X13980905Y-14760905D01*
X14038048Y-14789476D02*
X14161857Y-14789476D01*
X14095190Y-14865667D01*
X14123762Y-14865667D01*
X14142809Y-14875190D01*
X14152333Y-14884714D01*
X14161857Y-14903762D01*
X14161857Y-14951381D01*
X14152333Y-14970428D01*
X14142809Y-14979952D01*
X14123762Y-14989476D01*
X14066619Y-14989476D01*
X14047571Y-14979952D01*
X14038048Y-14970428D01*
X14276143Y-14875190D02*
X14257095Y-14865667D01*
X14247571Y-14856143D01*
X14238048Y-14837095D01*
X14238048Y-14827571D01*
X14247571Y-14808524D01*
X14257095Y-14799000D01*
X14276143Y-14789476D01*
X14314238Y-14789476D01*
X14333286Y-14799000D01*
X14342809Y-14808524D01*
X14352333Y-14827571D01*
X14352333Y-14837095D01*
X14342809Y-14856143D01*
X14333286Y-14865667D01*
X14314238Y-14875190D01*
X14276143Y-14875190D01*
X14257095Y-14884714D01*
X14247571Y-14894238D01*
X14238048Y-14913286D01*
X14238048Y-14951381D01*
X14247571Y-14970428D01*
X14257095Y-14979952D01*
X14276143Y-14989476D01*
X14314238Y-14989476D01*
X14333286Y-14979952D01*
X14342809Y-14970428D01*
X14352333Y-14951381D01*
X14352333Y-14913286D01*
X14342809Y-14894238D01*
X14333286Y-14884714D01*
X14314238Y-14875190D01*
X14590428Y-14989476D02*
X14590428Y-14789476D01*
X14676143Y-14989476D02*
X14676143Y-14884714D01*
X14666619Y-14865667D01*
X14647571Y-14856143D01*
X14619000Y-14856143D01*
X14599952Y-14865667D01*
X14590428Y-14875190D01*
X14799952Y-14989476D02*
X14780905Y-14979952D01*
X14771381Y-14970428D01*
X14761857Y-14951381D01*
X14761857Y-14894238D01*
X14771381Y-14875190D01*
X14780905Y-14865667D01*
X14799952Y-14856143D01*
X14828524Y-14856143D01*
X14847571Y-14865667D01*
X14857095Y-14875190D01*
X14866619Y-14894238D01*
X14866619Y-14951381D01*
X14857095Y-14970428D01*
X14847571Y-14979952D01*
X14828524Y-14989476D01*
X14799952Y-14989476D01*
X14980905Y-14989476D02*
X14961857Y-14979952D01*
X14952333Y-14960905D01*
X14952333Y-14789476D01*
X15133286Y-14979952D02*
X15114238Y-14989476D01*
X15076143Y-14989476D01*
X15057095Y-14979952D01*
X15047571Y-14960905D01*
X15047571Y-14884714D01*
X15057095Y-14865667D01*
X15076143Y-14856143D01*
X15114238Y-14856143D01*
X15133286Y-14865667D01*
X15142809Y-14884714D01*
X15142809Y-14903762D01*
X15047571Y-14922809D01*
X15219000Y-14979952D02*
X15238048Y-14989476D01*
X15276143Y-14989476D01*
X15295190Y-14979952D01*
X15304714Y-14960905D01*
X15304714Y-14951381D01*
X15295190Y-14932333D01*
X15276143Y-14922809D01*
X15247571Y-14922809D01*
X15228524Y-14913286D01*
X15219000Y-14894238D01*
X15219000Y-14884714D01*
X15228524Y-14865667D01*
X15247571Y-14856143D01*
X15276143Y-14856143D01*
X15295190Y-14865667D01*
X15371381Y-15065667D02*
X15380905Y-15056143D01*
X15399952Y-15027571D01*
X15409476Y-15008524D01*
X15419000Y-14979952D01*
X15428524Y-14932333D01*
X15428524Y-14894238D01*
X15419000Y-14846619D01*
X15409476Y-14818048D01*
X15399952Y-14799000D01*
X15380905Y-14770428D01*
X15371381Y-14760905D01*
M02*
